<svg width="24" height="32" viewBox="0 0 24 32" fill="none" xmlns="http://www.w3.org/2000/svg">
<path d="M4.19701 0.25H14.7973L23.7173 9.5564V27.8372C23.7173 29.9984 21.9657 31.75 19.8045 31.75H4.19701C2.0358 31.75 0.28418 29.9983 0.28418 27.8372V4.16283C0.28418 2.00166 2.0358 0.25 4.19701 0.25Z" fill="#201105" stroke="#E47930" stroke-width="0.5"/>
<path fill-rule="evenodd" clip-rule="evenodd" d="M14.8911 0V9.37826H23.9674L14.8911 0Z" fill="#E47930"/>
<path d="M7.64372 23.877H9.2614C9.30454 23.877 9.34336 23.8468 9.35201 23.808L9.82652 22.104H11.6599L12.1689 23.808C12.1819 23.8468 12.2207 23.877 12.2638 23.877H13.9419C13.998 23.877 14.0411 23.8339 14.0411 23.7821C14.0411 23.7648 14.0368 23.7519 14.0325 23.739L11.8929 16.8454C11.8799 16.8066 11.8454 16.7807 11.8023 16.7807H9.75318C9.71004 16.7807 9.67122 16.8066 9.66257 16.8454L7.54879 23.7519C7.54018 23.7821 7.54879 23.8123 7.56605 23.8382C7.58336 23.8597 7.61356 23.877 7.64372 23.877ZM15.5208 18.2517C16.0643 18.2517 16.4569 17.8851 16.4569 17.376C16.444 16.854 16.0644 16.4917 15.5294 16.4917C15.2577 16.4917 15.0161 16.5866 14.8478 16.7548C14.6925 16.9145 14.6106 17.1388 14.6149 17.376C14.6106 17.609 14.6925 17.8247 14.8522 17.9843C15.0161 18.1568 15.2533 18.2517 15.5208 18.2517ZM14.7529 18.6745C14.6969 18.6745 14.6537 18.7176 14.6537 18.7694V23.7821C14.6537 23.8338 14.6969 23.877 14.7529 23.877H16.3102C16.362 23.877 16.4051 23.8338 16.4051 23.7821V18.7694C16.4051 18.7176 16.362 18.6745 16.3102 18.6745H14.7529ZM11.3752 20.7451H10.107L10.4822 19.3992C10.5469 19.1577 10.6117 18.8729 10.6764 18.5969C10.6893 18.5322 10.7022 18.4718 10.7195 18.407C10.8015 18.7392 10.8921 19.0973 10.9826 19.4035L11.3752 20.7451Z" fill="#DD732C"/>
</svg>
