<svg width="101" height="20" viewBox="0 0 101 20" fill="none" xmlns="http://www.w3.org/2000/svg">
<path d="M34.1369 16.5834C33.0694 16.5834 32.1353 16.4182 31.3347 16.0878C30.534 15.7574 29.8732 15.3062 29.3521 14.7343C28.8311 14.1497 28.4371 13.4698 28.1703 12.6946C27.9161 11.9067 27.789 11.0616 27.789 10.1593C27.789 9.40947 27.9161 8.65332 28.1703 7.89081C28.4244 7.1283 28.8247 6.44204 29.3712 5.83203C29.9177 5.20931 30.6166 4.70733 31.4681 4.32607C32.3196 3.93211 33.3363 3.73513 34.5182 3.73513C35.1663 3.73513 35.7699 3.77961 36.3291 3.86857C36.901 3.95753 37.5174 4.09097 38.1782 4.26888C38.2036 4.61201 38.2544 5.05046 38.3307 5.58421C38.407 6.11797 38.515 6.63902 38.6548 7.14736C38.5912 7.16007 38.5086 7.17913 38.407 7.20455C38.3053 7.21726 38.229 7.22361 38.1782 7.22361C38.0765 7.22361 37.9876 7.2109 37.9113 7.18548C37.8478 7.14736 37.8033 7.07746 37.7779 6.97579C37.6381 6.55641 37.4792 6.20693 37.3013 5.92734C37.1234 5.63505 36.9073 5.40629 36.6532 5.24108C36.4117 5.06317 36.1258 4.93608 35.7954 4.85983C35.4649 4.78358 35.0773 4.74545 34.6325 4.74545C33.9463 4.74545 33.3363 4.86618 32.8025 5.10764C32.2815 5.3364 31.843 5.67317 31.4872 6.11797C31.1313 6.55006 30.8581 7.07746 30.6675 7.70018C30.4896 8.31019 30.4006 9.0028 30.4006 9.77802C30.4006 10.6041 30.5086 11.3729 30.7247 12.0846C30.9534 12.7963 31.2584 13.4126 31.6397 13.9337C32.0336 14.4547 32.4975 14.8614 33.0313 15.1537C33.565 15.446 34.1432 15.5922 34.766 15.5922C35.2743 15.5922 35.7064 15.5477 36.0622 15.4587C36.4308 15.357 36.7421 15.2109 36.9963 15.0203C37.2632 14.8169 37.4856 14.5628 37.6635 14.2578C37.8541 13.9528 38.0257 13.5969 38.1782 13.1902C38.2163 13.0886 38.2735 13.0187 38.3498 12.9806C38.4387 12.9297 38.5277 12.9043 38.6166 12.9043C38.6802 12.9043 38.7564 12.917 38.8454 12.9424C38.9471 12.9551 39.0297 12.9742 39.0932 12.9996C39.017 13.2157 38.9344 13.4635 38.8454 13.7431C38.7691 14.0099 38.6865 14.2895 38.5976 14.5818C38.5086 14.8614 38.426 15.1474 38.3498 15.4397C38.2862 15.7192 38.229 15.9925 38.1782 16.2594C37.5555 16.3737 36.9201 16.4563 36.2719 16.5072C35.6238 16.558 34.9121 16.5834 34.1369 16.5834Z" fill="#1C222B"/>
<path d="M46.34 7.96706C46.7086 7.96706 46.9818 8.06237 47.1597 8.253C47.3504 8.44363 47.4457 8.68509 47.4457 8.97738C47.4457 9.06634 47.4266 9.14259 47.3885 9.20614C47.3631 9.26968 47.2932 9.33957 47.1788 9.41583C47.0771 9.49208 46.931 9.58104 46.7403 9.6827C46.5497 9.77166 46.3019 9.88604 45.9969 10.0258C45.7936 9.8225 45.6029 9.68906 45.425 9.62552C45.2598 9.54927 45.0946 9.51114 44.9294 9.51114C44.7769 9.51114 44.6244 9.53656 44.4719 9.58739C44.3321 9.63823 44.205 9.73989 44.0906 9.89239C43.9762 10.0322 43.8809 10.2228 43.8047 10.4643C43.7411 10.7057 43.7094 11.0171 43.7094 11.3984V14.944C43.7094 15.1982 43.811 15.3888 44.0144 15.5159C44.2177 15.6303 44.618 15.7383 45.2153 15.84C45.3551 15.8654 45.425 15.948 45.425 16.0878C45.425 16.2657 45.4123 16.3864 45.3869 16.45C45.2217 16.4373 45.0183 16.4246 44.7769 16.4119C44.5354 16.4119 44.2813 16.4055 44.0144 16.3928C43.7475 16.3801 43.4806 16.3674 43.2137 16.3547C42.9596 16.3547 42.7308 16.3547 42.5275 16.3547C42.0446 16.3547 41.6315 16.361 41.2884 16.3737C40.9453 16.3991 40.6212 16.4246 40.3162 16.45C40.2908 16.3864 40.2781 16.2657 40.2781 16.0878C40.2781 15.948 40.348 15.8654 40.4878 15.84C40.8944 15.7637 41.174 15.6811 41.3265 15.5922C41.479 15.5032 41.5553 15.3634 41.5553 15.1728V10.0449C41.5553 9.7526 41.4981 9.51749 41.3837 9.33957C41.282 9.16166 40.9834 9.04093 40.4878 8.97738C40.3098 8.95197 40.2209 8.85665 40.2209 8.69144C40.2209 8.65332 40.2209 8.60248 40.2209 8.53894C40.2209 8.4754 40.2336 8.42456 40.259 8.38644C40.3353 8.38644 40.4433 8.38644 40.5831 8.38644C40.7229 8.37373 40.8754 8.36737 41.0406 8.36737C41.2058 8.35467 41.371 8.34196 41.5362 8.32925C41.7014 8.31654 41.8476 8.29748 41.9747 8.27206C42.2542 8.23394 42.5402 8.18946 42.8325 8.13862C43.1375 8.07508 43.3408 8.04331 43.4425 8.04331C43.6204 8.04331 43.7094 8.13862 43.7094 8.32925V9.35864C44.1542 8.87571 44.5799 8.52623 44.9866 8.31019C45.3932 8.08143 45.8444 7.96706 46.34 7.96706Z" fill="#1C222B"/>
<path d="M47.6137 12.2752C47.6137 11.6525 47.7217 11.0806 47.9377 10.5596C48.1665 10.0258 48.4778 9.56833 48.8718 9.18707C49.2658 8.79311 49.736 8.48811 50.2824 8.27206C50.8289 8.05602 51.4262 7.94799 52.0743 7.94799C52.7479 7.94799 53.3579 8.05602 53.9044 8.27206C54.4508 8.48811 54.921 8.79311 55.315 9.18707C55.709 9.56833 56.0076 10.0258 56.211 10.5596C56.427 11.0806 56.535 11.6525 56.535 12.2752C56.535 12.898 56.4206 13.4762 56.1919 14.0099C55.9759 14.531 55.6645 14.9821 55.2578 15.3634C54.8639 15.7447 54.3936 16.0433 53.8472 16.2594C53.3007 16.4754 52.7034 16.5834 52.0553 16.5834C51.3817 16.5834 50.7717 16.4754 50.2253 16.2594C49.6788 16.0433 49.2086 15.7447 48.8146 15.3634C48.4334 14.9821 48.1347 14.531 47.9187 14.0099C47.7153 13.4762 47.6137 12.898 47.6137 12.2752ZM50.0156 11.894C50.0156 13.0632 50.2062 13.9972 50.5874 14.6962C50.9814 15.3952 51.5406 15.7447 52.265 15.7447C52.9385 15.7447 53.4151 15.4778 53.6947 14.944C53.987 14.3976 54.1331 13.635 54.1331 12.6565C54.1331 11.5 53.9361 10.5659 53.5422 9.85427C53.1482 9.14259 52.5954 8.78676 51.8837 8.78676C51.2102 8.78676 50.7272 9.06634 50.4349 9.62552C50.1554 10.172 50.0156 10.9281 50.0156 11.894Z" fill="#1C222B"/>
<path d="M63.2095 10.5024C63.0316 10.4897 62.9299 10.4198 62.9045 10.2927C62.8156 9.77166 62.6122 9.39041 62.2945 9.14895C61.9768 8.90749 61.5765 8.78676 61.0936 8.78676C60.6615 8.78676 60.331 8.89478 60.1023 9.11082C59.8735 9.32687 59.7592 9.58104 59.7592 9.87333C59.7592 10.0131 59.7782 10.1402 59.8163 10.2546C59.8545 10.369 59.9307 10.477 60.0451 10.5787C60.1722 10.6803 60.3438 10.782 60.5598 10.8837C60.7758 10.9726 61.0681 11.0743 61.4367 11.1887C61.8688 11.3157 62.25 11.4555 62.5804 11.608C62.9109 11.7478 63.1905 11.9194 63.4192 12.1227C63.648 12.3261 63.8195 12.5739 63.9339 12.8662C64.061 13.1458 64.1245 13.4825 64.1245 13.8765C64.1245 14.2451 64.061 14.5945 63.9339 14.925C63.8195 15.2554 63.6289 15.5477 63.362 15.8018C63.0951 16.0433 62.7584 16.2339 62.3517 16.3737C61.945 16.5135 61.4557 16.5834 60.8839 16.5834C60.4772 16.5834 60.007 16.5389 59.4732 16.45C58.9522 16.361 58.4756 16.2022 58.0435 15.9734C58.0181 15.643 57.9927 15.2935 57.9673 14.925C57.9546 14.5437 57.9482 14.1688 57.9482 13.8003H58.196C58.3358 13.8003 58.4565 13.8257 58.5582 13.8765C58.6599 13.9146 58.7171 13.9845 58.7298 14.0862C58.7806 14.62 58.9903 15.033 59.3588 15.3253C59.7274 15.6049 60.2357 15.7447 60.8839 15.7447C61.3287 15.7447 61.6909 15.643 61.9704 15.4397C62.25 15.2363 62.3898 14.9694 62.3898 14.639C62.3898 14.334 62.2627 14.0735 62.0086 13.8574C61.7671 13.6414 61.3032 13.4317 60.617 13.2284C59.6893 12.9615 59.0348 12.612 58.6535 12.1799C58.285 11.7351 58.1007 11.2077 58.1007 10.5977C58.1007 9.79708 58.3676 9.1553 58.9013 8.67238C59.4478 8.18946 60.1531 7.94799 61.0173 7.94799C61.5129 7.94799 61.9895 8.01154 62.447 8.13862C62.9172 8.253 63.2921 8.38008 63.5717 8.51988C63.5844 8.62154 63.5971 8.76134 63.6098 8.93926C63.6225 9.10447 63.6353 9.28874 63.648 9.49208C63.6607 9.6827 63.667 9.87333 63.667 10.064C63.6797 10.2419 63.6861 10.3944 63.6861 10.5215L63.2095 10.5024Z" fill="#1C222B"/>
<path d="M70.7118 10.5024C70.5338 10.4897 70.4322 10.4198 70.4067 10.2927C70.3178 9.77166 70.1144 9.39041 69.7967 9.14895C69.479 8.90749 69.0787 8.78676 68.5958 8.78676C68.1637 8.78676 67.8333 8.89478 67.6045 9.11082C67.3758 9.32687 67.2614 9.58104 67.2614 9.87333C67.2614 10.0131 67.2805 10.1402 67.3186 10.2546C67.3567 10.369 67.433 10.477 67.5473 10.5787C67.6744 10.6803 67.846 10.782 68.062 10.8837C68.2781 10.9726 68.5704 11.0743 68.9389 11.1887C69.371 11.3157 69.7523 11.4555 70.0827 11.608C70.4131 11.7478 70.6927 11.9194 70.9214 12.1227C71.1502 12.3261 71.3218 12.5739 71.4361 12.8662C71.5632 13.1458 71.6268 13.4825 71.6268 13.8765C71.6268 14.2451 71.5632 14.5945 71.4361 14.925C71.3218 15.2554 71.1311 15.5477 70.8643 15.8018C70.5974 16.0433 70.2606 16.2339 69.8539 16.3737C69.4473 16.5135 68.958 16.5834 68.3861 16.5834C67.9794 16.5834 67.5092 16.5389 66.9755 16.45C66.4544 16.361 65.9778 16.2022 65.5457 15.9734C65.5203 15.643 65.4949 15.2935 65.4695 14.925C65.4568 14.5437 65.4504 14.1688 65.4504 13.8003H65.6982C65.838 13.8003 65.9588 13.8257 66.0604 13.8765C66.1621 13.9146 66.2193 13.9845 66.232 14.0862C66.2828 14.62 66.4925 15.033 66.8611 15.3253C67.2296 15.6049 67.738 15.7447 68.3861 15.7447C68.8309 15.7447 69.1931 15.643 69.4727 15.4397C69.7523 15.2363 69.8921 14.9694 69.8921 14.639C69.8921 14.334 69.765 14.0735 69.5108 13.8574C69.2693 13.6414 68.8055 13.4317 68.1192 13.2284C67.1915 12.9615 66.537 12.612 66.1558 12.1799C65.7872 11.7351 65.6029 11.2077 65.6029 10.5977C65.6029 9.79708 65.8698 9.1553 66.4036 8.67238C66.95 8.18946 67.6554 7.94799 68.5195 7.94799C69.0152 7.94799 69.4917 8.01154 69.9492 8.13862C70.4195 8.253 70.7944 8.38008 71.0739 8.51988C71.0867 8.62154 71.0994 8.76134 71.1121 8.93926C71.1248 9.10447 71.1375 9.28874 71.1502 9.49208C71.1629 9.6827 71.1693 9.87333 71.1693 10.064C71.182 10.2419 71.1883 10.3944 71.1883 10.5215L70.7118 10.5024Z" fill="#1C222B"/>
<path d="M73.9821 5.1839C73.9821 4.80264 73.9185 4.5167 73.7914 4.32607C73.6643 4.13544 73.3657 4.01471 72.8955 3.96388C72.7303 3.92575 72.6477 3.82409 72.6477 3.65888C72.6477 3.62075 72.6477 3.57627 72.6477 3.52544C72.6477 3.46189 72.6604 3.40471 72.6858 3.35387C72.762 3.35387 72.8701 3.35387 73.0099 3.35387C73.1624 3.34116 73.3212 3.33481 73.4864 3.33481C73.6516 3.3221 73.8168 3.30939 73.9821 3.29668C74.1473 3.28397 74.2998 3.27127 74.4396 3.25856C74.7573 3.22043 75.0623 3.1696 75.3546 3.10606C75.6469 3.04251 75.8438 3.01074 75.9455 3.01074C76.1488 3.01074 76.2505 3.10606 76.2505 3.29668C76.2505 3.53815 76.2315 3.81773 76.1933 4.13544C76.1552 4.44045 76.1361 4.79629 76.1361 5.20296V9.5302C76.4539 9.05999 76.8224 8.67873 77.2418 8.38644C77.6612 8.09414 78.233 7.94799 78.9574 7.94799C79.4531 7.94799 79.9106 8.04331 80.3299 8.23394C80.762 8.41185 81.1369 8.67873 81.4546 9.03457C81.7724 9.3777 82.0202 9.80344 82.1981 10.3118C82.376 10.8201 82.465 11.3984 82.465 12.0465C82.465 12.7582 82.3252 13.3936 82.0456 13.9528C81.7787 14.5119 81.4356 14.9885 81.0162 15.3825C80.5968 15.7764 80.1393 16.0751 79.6437 16.2784C79.1481 16.4818 78.6715 16.5834 78.214 16.5834C77.7946 16.5834 77.3435 16.5326 76.8605 16.4309C76.3903 16.3292 75.8947 16.1513 75.3736 15.8972C75.2211 15.9226 75.0813 15.9734 74.9543 16.0497C74.8399 16.1132 74.7319 16.1831 74.6302 16.2594C74.5412 16.3229 74.4586 16.3801 74.3824 16.4309C74.3188 16.4818 74.2616 16.5072 74.2108 16.5072C74.1091 16.5072 73.9948 16.4754 73.8677 16.4119C73.9439 15.6875 73.9821 15.0139 73.9821 14.3912V5.1839ZM76.1361 14.8868C76.403 15.1918 76.7017 15.4142 77.0321 15.554C77.3752 15.6811 77.7374 15.7447 78.1187 15.7447C78.7668 15.7447 79.2497 15.4651 79.5674 14.9059C79.8979 14.334 80.0631 13.5397 80.0631 12.5231C80.0631 12.0401 80.0186 11.589 79.9296 11.1696C79.8534 10.7375 79.7326 10.369 79.5674 10.064C79.4022 9.74625 79.1862 9.49843 78.9193 9.32051C78.6524 9.12989 78.3411 9.03457 77.9852 9.03457C77.7565 9.03457 77.5277 9.11082 77.299 9.26332C77.0829 9.40312 76.8859 9.59375 76.708 9.83521C76.5428 10.064 76.403 10.3245 76.2886 10.6168C76.187 10.9091 76.1361 11.2014 76.1361 11.4937V14.8868Z" fill="#1C222B"/>
<path d="M86.0725 16.3547C85.5768 16.3547 85.1511 16.361 84.7953 16.3737C84.4394 16.3991 84.0963 16.4246 83.7659 16.45C83.7404 16.3229 83.7277 16.2022 83.7277 16.0878C83.7277 15.9988 83.7468 15.9416 83.7849 15.9162C83.8358 15.8781 83.8866 15.8527 83.9374 15.84C84.3441 15.7637 84.6237 15.6811 84.7762 15.5922C84.9287 15.5032 85.0049 15.3634 85.0049 15.1728V10.1402C85.0049 9.75896 84.9414 9.46666 84.8143 9.26332C84.6872 9.05999 84.3886 8.93926 83.9184 8.90113C83.7532 8.87571 83.6705 8.77405 83.6705 8.59613C83.6705 8.558 83.6705 8.51352 83.6705 8.46269C83.6705 8.39915 83.6833 8.34196 83.7087 8.29112C83.7849 8.29112 83.8929 8.29112 84.0327 8.29112C84.1852 8.27842 84.3441 8.27206 84.5093 8.27206C84.6745 8.25935 84.8397 8.24664 85.0049 8.23394C85.1702 8.22123 85.3227 8.20852 85.4624 8.19581C85.7802 8.15768 86.0852 8.10685 86.3775 8.04331C86.6698 7.97977 86.8667 7.94799 86.9684 7.94799C87.1717 7.94799 87.2734 8.04331 87.2734 8.23394C87.2734 8.37373 87.2543 8.558 87.2162 8.78676C87.1781 9.01551 87.159 9.33322 87.159 9.73989V15.1728C87.159 15.3634 87.2416 15.5032 87.4068 15.5922C87.5721 15.6811 87.8453 15.7637 88.2265 15.84C88.3663 15.8654 88.4362 15.948 88.4362 16.0878C88.4362 16.1513 88.4362 16.2149 88.4362 16.2784C88.4362 16.342 88.4235 16.3991 88.3981 16.45C88.0804 16.4246 87.7373 16.3991 87.3687 16.3737C87.0002 16.361 86.5681 16.3547 86.0725 16.3547ZM84.6809 5.16483C84.6809 4.75816 84.808 4.42774 85.0621 4.17357C85.329 3.90669 85.6594 3.77325 86.0534 3.77325C86.4601 3.77325 86.7905 3.90669 87.0447 4.17357C87.2988 4.42774 87.4259 4.75816 87.4259 5.16483C87.4259 5.57151 87.2988 5.90828 87.0447 6.17516C86.7905 6.42933 86.4601 6.55641 86.0534 6.55641C85.6594 6.55641 85.329 6.42933 85.0621 6.17516C84.808 5.90828 84.6809 5.57151 84.6809 5.16483Z" fill="#1C222B"/>
<path d="M98.3061 15.1918C98.3061 15.3698 98.3824 15.5096 98.5349 15.6112C98.6874 15.7002 98.967 15.7764 99.3736 15.84C99.4245 15.8527 99.4689 15.8781 99.5071 15.9162C99.5579 15.9416 99.5833 15.9988 99.5833 16.0878C99.5833 16.164 99.577 16.2339 99.5643 16.2975C99.5643 16.3483 99.5579 16.3991 99.5452 16.45C99.2148 16.4246 98.8844 16.3991 98.5539 16.3737C98.2235 16.361 97.8105 16.3547 97.3149 16.3547C96.9082 16.3547 96.5269 16.361 96.1711 16.3737C95.8153 16.3991 95.4721 16.4246 95.1417 16.45C95.1163 16.3864 95.1036 16.2657 95.1036 16.0878C95.1036 15.948 95.1735 15.8654 95.3133 15.84C95.6437 15.7764 95.8661 15.7002 95.9805 15.6112C96.0948 15.5223 96.152 15.3825 96.152 15.1918V11.4555C96.152 10.7057 96.0567 10.191 95.8661 9.91146C95.6882 9.61916 95.3959 9.47301 94.9892 9.47301C94.4173 9.47301 93.928 9.67 93.5214 10.064C93.1147 10.4452 92.9114 11.0171 92.9114 11.7796V15.1918C92.9114 15.3825 92.9686 15.5223 93.0829 15.6112C93.1973 15.7002 93.4197 15.7764 93.7501 15.84C93.8899 15.8654 93.9598 15.948 93.9598 16.0878C93.9598 16.2657 93.9471 16.3864 93.9217 16.45C93.5913 16.4246 93.2481 16.3991 92.8923 16.3737C92.5365 16.361 92.1552 16.3547 91.7485 16.3547C91.2529 16.3547 90.8335 16.361 90.4904 16.3737C90.16 16.3991 89.8359 16.4246 89.5182 16.45C89.5055 16.3991 89.4928 16.3483 89.4801 16.2975C89.4801 16.2339 89.4801 16.164 89.4801 16.0878C89.4801 15.9988 89.4991 15.9416 89.5373 15.9162C89.5881 15.8781 89.6389 15.8527 89.6898 15.84C90.0964 15.7637 90.376 15.6811 90.5285 15.5922C90.681 15.5032 90.7573 15.3634 90.7573 15.1728V10.1402C90.7573 9.75896 90.6874 9.46666 90.5476 9.26332C90.4078 9.05999 90.1155 8.93926 89.6707 8.90113C89.5055 8.86301 89.4229 8.76134 89.4229 8.59613C89.4229 8.558 89.4229 8.51352 89.4229 8.46269C89.4229 8.39915 89.4356 8.34196 89.461 8.29112C89.5373 8.29112 89.6453 8.29112 89.7851 8.29112C89.9376 8.27842 90.0964 8.27206 90.2616 8.27206C90.4269 8.25935 90.5921 8.24664 90.7573 8.23394C90.9225 8.22123 91.075 8.20852 91.2148 8.19581C91.5325 8.15768 91.8375 8.10685 92.1298 8.04331C92.4221 7.97977 92.6191 7.94799 92.7207 7.94799C92.9241 7.94799 93.0257 8.04331 93.0257 8.23394C93.0257 8.37373 93.0067 8.558 92.9686 8.78676C92.9304 9.01551 92.9114 9.33322 92.9114 9.73989C93.318 9.20614 93.7692 8.77405 94.2648 8.44363C94.7605 8.1132 95.2751 7.94799 95.8089 7.94799C96.5841 7.94799 97.1941 8.16404 97.6389 8.59613C98.0837 9.02822 98.3061 9.67635 98.3061 10.5405V15.1918Z" fill="#1C222B"/>
<path d="M19.7628 1.43392C19.1318 0.802286 18.2262 0.46875 17.1446 0.46875C15.5028 0.46875 13.3919 1.24888 11.1972 2.66514L11.3035 2.73319C11.7045 2.9953 12.114 3.28328 12.5195 3.58813C12.5966 3.64437 12.6725 3.70455 12.7485 3.76305C14.4263 2.7675 15.9792 2.22023 17.1446 2.22023C17.7599 2.22023 18.2245 2.37266 18.5243 2.6702C19.1666 3.31252 19.1301 4.7001 18.4236 6.47633C18.1473 7.15834 17.8184 7.81783 17.4399 8.44886C17.3921 8.52986 17.3437 8.61085 17.2937 8.69241C17.0518 9.08612 16.7841 9.48715 16.4983 9.88425C16.4708 9.92193 16.4421 9.95962 16.4145 9.99674C15.6834 10.9923 14.8767 11.93 14.0016 12.8017C13.4296 13.3743 12.8255 13.921 12.2057 14.4283L12.0049 14.592L12.2186 14.7388C12.4903 14.9255 12.758 15.1005 13.0151 15.2585C13.1422 15.3367 13.2783 15.4177 13.4425 15.5116L13.5612 15.5797L13.6653 15.4914C14.2092 15.0296 14.7395 14.5414 15.2401 14.0402C15.96 13.3208 16.6376 12.5602 17.2695 11.7623C17.3325 11.683 17.3943 11.6031 17.4556 11.5238L17.5209 11.4389C17.5775 11.3639 17.6338 11.2889 17.6896 11.2139L17.7369 11.1503C17.7927 11.0753 17.8479 11.0003 17.9022 10.9254L17.95 10.859C18.0063 10.7797 18.0625 10.7009 18.1188 10.6228C18.2493 10.436 18.3646 10.2656 18.472 10.1019C19.097 9.16348 19.6265 8.16483 20.0525 7.12091C21.043 4.63092 20.9406 2.61114 19.7628 1.43392Z" fill="#94ABFF"/>
<path d="M16.6983 7.536C16.2337 6.99042 15.7421 6.4589 15.2404 5.95662C14.7387 5.45435 14.2094 4.96502 13.6706 4.5083C13.3714 4.25407 13.062 4.00209 12.7487 3.76305C12.6728 3.7068 12.5969 3.64606 12.5198 3.58813C12.1143 3.28328 11.7048 2.9953 11.3038 2.73319L11.1975 2.66514C10.7964 2.40641 10.3937 2.16511 9.99888 1.94857C8.23109 0.980584 6.58872 0.46875 5.24951 0.46875C4.15216 0.46875 3.27136 0.793287 2.63072 1.43392C1.4535 2.61114 1.35114 4.63092 2.34162 7.12597C2.5731 7.70231 2.83964 8.26394 3.13974 8.80771L3.29048 9.08275L3.4699 8.82515C3.74663 8.43143 4.04923 8.02196 4.36983 7.61643L4.44633 7.52025L4.39008 7.40776C3.32142 5.23274 3.11893 3.4177 3.86587 2.67076C4.16566 2.37097 4.63025 2.2208 5.24614 2.2208C6.16013 2.2208 7.32103 2.55827 8.60287 3.19553C9.02415 3.40533 9.45611 3.6455 9.88583 3.91041C10.2824 4.15452 10.684 4.42225 11.0799 4.70685C11.4523 4.97458 11.8308 5.26537 12.2048 5.57134C12.8235 6.07755 13.4293 6.62538 13.9991 7.19571C14.5688 7.76604 15.124 8.37687 15.633 8.99557C15.9052 9.32686 16.1662 9.66377 16.412 10.0001C16.4396 9.96187 16.4682 9.92418 16.4958 9.88762C16.7815 9.49053 17.0493 9.0895 17.2911 8.69578C17.3412 8.61423 17.3895 8.53323 17.4373 8.45224C17.2017 8.14289 16.9531 7.83691 16.6983 7.536Z" fill="#1B4DFF"/>
<path d="M11.0909 17.2674C10.6899 17.0053 10.2804 16.7179 9.87431 16.4124L9.64539 16.2375C7.96646 17.2331 6.41465 17.7803 5.24981 17.7803C4.6311 17.7803 4.16933 17.6279 3.86954 17.3304C2.98761 16.4484 3.42689 14.1469 4.9562 11.5545C5.00401 11.4735 5.05238 11.392 5.10244 11.3104C5.34486 10.9167 5.61203 10.5128 5.89719 10.1163C5.92419 10.0786 5.95344 10.0409 5.98043 10.0038C6.71085 9.00805 7.51719 8.07027 8.39224 7.19886C8.96482 6.62628 9.5689 6.07958 10.1882 5.57224L10.389 5.40801L10.1752 5.26121C9.90468 5.0756 9.63696 4.90067 9.37935 4.74206C9.25055 4.66275 9.115 4.58232 8.95189 4.48896L8.83321 4.4209L8.72915 4.5092C8.1847 4.97098 7.65486 5.45919 7.15428 5.96034C6.43619 6.67741 5.76012 7.43536 5.12944 8.23041C5.06307 8.31421 4.99783 8.39914 4.93202 8.48351L4.88027 8.55044C4.82009 8.62469 4.76047 8.70512 4.70422 8.78442L4.66541 8.83617C4.60917 8.91435 4.55292 8.99253 4.49668 9.07015L4.45056 9.13483C4.39431 9.21414 4.33807 9.29288 4.28182 9.37107C4.15077 9.55893 4.0349 9.72991 3.92747 9.89415C3.30273 10.8326 2.77345 11.8313 2.34754 12.8752C1.35593 15.3685 1.4583 17.39 2.63551 18.5672C3.26265 19.1988 4.16764 19.5318 5.24981 19.5318C6.8933 19.5318 9.00194 18.7517 11.1972 17.3354L11.0909 17.2674Z" fill="#94ABFF"/>
<path d="M20.0525 12.8743C19.8206 12.2982 19.5541 11.7366 19.2544 11.1926L19.1037 10.9175L18.9242 11.1751C18.6486 11.5688 18.3466 11.9761 18.0277 12.3793L17.9512 12.4761L18.0074 12.5886C18.1694 12.9165 18.3106 13.2309 18.427 13.5239C19.1335 15.3002 19.17 16.6877 18.5277 17.3301C18.2279 17.6299 17.7639 17.78 17.148 17.78C16.234 17.78 15.0731 17.4426 13.7913 16.8047C13.3694 16.5949 12.9375 16.3548 12.5083 16.0904C12.1146 15.8469 11.7102 15.5786 11.3137 15.294C10.9408 15.0257 10.5628 14.7349 10.1888 14.4295C9.57006 13.9233 8.96429 13.3749 8.39452 12.8051C7.82476 12.2353 7.26961 11.624 6.7634 11.0053C6.48724 10.6678 6.22626 10.3303 5.98384 9.99902C5.95628 10.0373 5.9276 10.075 5.9006 10.1115C5.61543 10.508 5.34827 10.9096 5.10585 11.3056C5.05579 11.3872 5.00742 11.4687 4.95961 11.5497C5.19809 11.8579 5.4467 12.165 5.70205 12.4648C6.16495 13.0087 6.65485 13.5391 7.15712 14.0397C7.65939 14.5403 8.18642 15.0364 8.72412 15.492C9.02335 15.7456 9.3327 15.9954 9.64599 16.2372L9.87491 16.4121C10.281 16.7175 10.6905 17.005 11.0915 17.2671L11.1978 17.3351C11.5983 17.5939 12.001 17.8351 12.3958 18.0511C14.1636 19.0191 15.806 19.5309 17.1458 19.5315C18.2426 19.5315 19.1234 19.207 19.7634 18.5663C20.9418 17.3891 21.0441 15.3677 20.0525 12.8743Z" fill="#1B4DFF"/>
</svg>
