<svg width="20" height="20" viewBox="0 0 20 20" fill="none" xmlns="http://www.w3.org/2000/svg">
<g clip-path="url(#clip0_21218_5977)">
<path d="M9.32385 3.97477C10.7062 3.9746 12.0629 4.34851 13.25 5.05686C14.4371 5.76521 15.4104 6.78159 16.0667 7.99824H19.2369C18.9361 6.61955 18.3258 5.32728 17.4522 4.21914C16.5785 3.111 15.4643 2.21599 14.1939 1.60177C12.9234 0.987558 11.53 0.670215 10.1189 0.673735C8.70775 0.677255 7.3159 1.00155 6.04854 1.62209C4.78118 2.24264 3.67149 3.14319 2.80336 4.25568C1.93522 5.36817 1.33138 6.66346 1.03746 8.04364C0.743553 9.42382 0.767271 10.8528 1.10682 12.2224C1.44638 13.5921 2.09288 14.8666 2.99745 15.9497C2.2123 14.7988 1.75594 13.4556 1.6775 12.0647C1.59905 10.6737 1.9015 9.28773 2.55228 8.05591C3.20306 6.82409 4.17751 5.79311 5.37072 5.07398C6.56393 4.35484 7.93069 3.9748 9.32385 3.97477Z" fill="#1B4DFF"/>
<path d="M16.065 7.99688H19.2368C18.7833 5.92181 17.634 4.06414 15.9795 2.73205C14.3251 1.39996 12.265 0.673516 10.1409 0.673218C11.6908 1.25634 13.0569 2.24252 14.0983 3.52995C15.1397 4.81739 15.8186 6.35942 16.065 7.99688Z" fill="#94ABFF"/>
<path d="M9.32394 16.0253C7.83472 16.0252 6.37782 15.591 5.13157 14.7757C3.88532 13.9604 2.90379 12.7995 2.30713 11.4351C2.30713 11.5008 2.30713 11.5666 2.30713 11.6339C2.30713 13.0538 3.86172 19.327 10.1459 19.327C12.2703 19.3263 14.3306 18.5993 15.985 17.2666C17.6394 15.934 18.7886 14.0757 19.2417 12.0002H16.0668C15.4108 13.2173 14.4376 14.2341 13.2505 14.9427C12.0633 15.6514 10.7065 16.0254 9.32394 16.0253Z" fill="#1B4DFF"/>
<path d="M9.32383 16.025C9.04976 16.0248 8.7759 16.0096 8.50348 15.9796C10.4809 16.6078 12.6114 16.5574 14.5569 15.8364C16.5024 15.1154 18.1512 13.7651 19.2416 12H16.0667C15.4107 13.2171 14.4375 14.2338 13.2504 14.9425C12.0632 15.6511 10.7064 16.0252 9.32383 16.025Z" fill="#94ABFF"/>
</g>
<defs>
<clipPath id="clip0_21218_5977">
<rect width="20" height="20" fill="white"/>
</clipPath>
</defs>
</svg>
