<svg width="20" height="20" viewBox="0 0 20 20" fill="none" xmlns="http://www.w3.org/2000/svg">
<path d="M17.4331 5.92248C16.2103 4.60563 14.4637 3.94336 12.252 3.94336H11.197C11.4007 4.70663 11.4971 5.49455 11.4835 6.28442C11.4835 6.37067 11.4835 6.45692 11.4835 6.54163H12.2535C13.7367 6.53701 14.8149 6.91589 15.5418 7.69676C16.2688 8.47763 16.6631 9.79601 16.6631 11.5811C16.6631 13.3661 16.2888 14.6414 15.5495 15.4315C14.8102 16.2216 13.7367 16.5728 12.252 16.5728H10.5301C9.04383 16.5728 7.96571 16.1985 7.23567 15.4269C6.50562 14.6553 6.13752 13.3985 6.12366 11.6796H4.98085C4.49153 11.6816 4.00347 11.6299 3.52539 11.5256C3.52539 11.5441 3.52539 11.5611 3.52539 11.5795C3.52539 14.0346 4.14146 15.9274 5.34895 17.2073C6.55645 18.4872 8.32303 19.1664 10.5316 19.1664H12.252C14.4622 19.1664 16.2056 18.5072 17.4347 17.2073C18.6637 15.9074 19.2598 14.0346 19.2598 11.5795C19.2598 9.1245 18.6468 7.21469 17.4331 5.92248Z" fill="#1B4DFF"/>
<path d="M11.4808 6.53722C11.4454 8.19136 11.0696 9.41272 10.3349 10.2583C9.52322 11.1962 8.30186 11.6722 6.70316 11.6722H6.12406C6.12406 11.6413 6.12406 11.609 6.12406 11.5767C6.10525 10.7297 6.22012 9.88506 6.46443 9.07388C6.61914 8.56015 6.88523 8.08686 7.24376 7.68773C7.68776 7.22324 8.25266 6.89198 8.8748 6.73128C9.41538 6.58836 9.97294 6.51996 10.532 6.52797L11.4808 6.53722Z" fill="#3CAAFA"/>
<path d="M11.1976 3.94363H10.5307C9.8482 3.93896 9.1673 4.01077 8.50077 4.15771C7.29371 4.41233 6.19257 5.02789 5.34342 5.92275C4.61645 6.69283 4.11128 7.70165 3.8171 8.91068C3.61765 9.769 3.51995 10.6478 3.52601 11.529C2.67363 11.3625 1.8994 10.921 1.32203 10.2722C0.555019 9.38351 0.183838 8.08361 0.183838 6.29855C0.183838 4.51349 0.5581 3.19202 1.32819 2.2941C2.13986 1.34382 3.36891 0.863281 4.98148 0.863281H6.70339C8.31903 0.863281 9.54655 1.34536 10.349 2.29564C10.7463 2.77803 11.0357 3.33998 11.1976 3.94363Z" fill="#3CAAFA"/>
</svg>
