<svg width="32" height="32" viewBox="0 0 32 32" fill="none" xmlns="http://www.w3.org/2000/svg">
<path fill-rule="evenodd" clip-rule="evenodd" d="M8.19967 0H18.9024L27.9679 9.45791V27.8326C27.9679 30.1328 26.1007 32 23.8005 32H8.19967C5.89945 32 4.03223 30.1328 4.03223 27.8326V4.16744C4.03223 1.86723 5.89945 0 8.19967 0Z" fill="#00733B"/>
<path opacity="0.302" fill-rule="evenodd" clip-rule="evenodd" d="M18.8887 0V9.37673H27.9677L18.8887 0Z" fill="white"/>
<path fill-rule="evenodd" clip-rule="evenodd" d="M11.0815 23.4757H15.3302V25.0858H11.0815V23.4757ZM16.6562 15.249H20.9183V16.8456H16.6562V15.249ZM11.0815 15.249H15.3302V16.8456H11.0815V15.249ZM16.6562 17.9551H20.9183V19.5653H16.6562V17.9551ZM11.0815 17.9551H15.3302V19.5653H11.0815V17.9551ZM16.6562 20.7695H20.9183V22.3797H16.6562V20.7695ZM11.0815 20.7695H15.3302V22.3797H11.0815V20.7695ZM16.6562 23.4757H20.9183V25.0858H16.6562V23.4757Z" fill="white"/>
</svg>
