<svg width="18" height="18" viewBox="0 0 18 18" fill="none" xmlns="http://www.w3.org/2000/svg">
<path fill-rule="evenodd" clip-rule="evenodd" d="M3.9375 14.0625C3.9375 12.6645 5.07078 11.5312 6.46875 11.5312H9V14.0625C9 15.4605 7.86672 16.5938 6.46875 16.5938C5.07078 16.5938 3.9375 15.4605 3.9375 14.0625Z" fill="#0ACF83"/>
<path fill-rule="evenodd" clip-rule="evenodd" d="M9 9C9 7.60203 10.1333 6.46875 11.5312 6.46875C12.9292 6.46875 14.0625 7.60203 14.0625 9C14.0625 10.398 12.9292 11.5312 11.5312 11.5312C10.1333 11.5312 9 10.398 9 9Z" fill="#1ABCFE"/>
<path fill-rule="evenodd" clip-rule="evenodd" d="M3.9375 9C3.9375 10.398 5.07078 11.5312 6.46875 11.5312H9V6.46875H6.46875C5.07078 6.46875 3.9375 7.60203 3.9375 9Z" fill="#A259FF"/>
<path fill-rule="evenodd" clip-rule="evenodd" d="M9 1.40625V6.46875H11.5312C12.9292 6.46875 14.0625 5.33547 14.0625 3.9375C14.0625 2.53953 12.9292 1.40625 11.5312 1.40625H9Z" fill="#FF7262"/>
<path fill-rule="evenodd" clip-rule="evenodd" d="M3.9375 3.9375C3.9375 5.33547 5.07078 6.46875 6.46875 6.46875H9V1.40625H6.46875C5.07078 1.40625 3.9375 2.53953 3.9375 3.9375Z" fill="#F24E1E"/>
</svg>
