<svg width="25" height="24" viewBox="0 0 25 24" fill="none" xmlns="http://www.w3.org/2000/svg">
<path d="M23.001 12.2336C23.001 11.3702 22.9296 10.7402 22.7748 10.0869H12.7153V13.9835H18.62C18.501 14.9519 17.8582 16.4102 16.4296 17.3902L16.4096 17.5206L19.5902 19.9354L19.8106 19.9569C21.8343 18.1252 23.001 15.4302 23.001 12.2336Z" fill="#4285F4"/>
<path d="M12.7147 22.4996C15.6075 22.4996 18.0361 21.5662 19.8099 19.9562L16.429 17.3895C15.5242 18.0078 14.3099 18.4395 12.7147 18.4395C9.88142 18.4395 7.47669 16.6079 6.61947 14.0762L6.49382 14.0866L3.18656 16.595L3.14331 16.7128C4.90519 20.1428 8.52423 22.4996 12.7147 22.4996Z" fill="#34A853"/>
<path d="M6.6201 14.0765C6.39391 13.4232 6.26301 12.7231 6.26301 11.9998C6.26301 11.2764 6.39391 10.5765 6.6082 9.92313L6.6022 9.78398L3.25349 7.23535L3.14393 7.28642C2.41777 8.70977 2.0011 10.3081 2.0011 11.9998C2.0011 13.6915 2.41777 15.2897 3.14393 16.7131L6.6201 14.0765Z" fill="#FBBC05"/>
<path d="M12.7148 5.55997C14.7267 5.55997 16.0838 6.41163 16.8576 7.12335L19.8814 4.23C18.0243 2.53834 15.6076 1.5 12.7148 1.5C8.52426 1.5 4.9052 3.85665 3.14331 7.28662L6.60759 9.92332C7.47672 7.39166 9.88146 5.55997 12.7148 5.55997Z" fill="#EB4335"/>
</svg>
