<svg width="32" height="32" viewBox="0 0 32 32" fill="none" xmlns="http://www.w3.org/2000/svg">
<path fill-rule="evenodd" clip-rule="evenodd" d="M8.17 0H18.87L27.94 9.46V27.83C27.94 30.13 26.07 32 23.77 32H8.17C5.87 32 4 30.13 4 27.83V4.17C4 1.87 5.87 0 8.17 0Z" fill="#0AC963"/>
<g opacity="0.3">
<path fill-rule="evenodd" clip-rule="evenodd" d="M18.8604 0V9.38H27.9404L18.8604 0Z" fill="white"/>
</g>
<path d="M9.3202 20.1299H29.6802V26.0599C29.6802 26.9599 28.9502 27.6799 28.0602 27.6799H9.3202C8.4202 27.6799 7.7002 26.9499 7.7002 26.0599V21.7599C7.7002 20.8599 8.4302 20.1399 9.3202 20.1399V20.1299Z" fill="white"/>
<path d="M11.8098 21.2397H13.0998V24.9697C13.0998 25.3197 13.0098 25.6197 12.8498 25.8897C12.6798 26.1497 12.4598 26.3497 12.1698 26.4997C11.8798 26.6397 11.5398 26.7197 11.1598 26.7197C10.8198 26.7197 10.5198 26.6597 10.2398 26.5397C9.96984 26.4197 9.74984 26.2397 9.57984 25.9897C9.41984 25.7397 9.33984 25.4297 9.33984 25.0397H10.6398C10.6398 25.1797 10.6698 25.2997 10.7198 25.3897C10.7698 25.4797 10.8398 25.5597 10.9198 25.6097C10.9998 25.6597 11.1098 25.6797 11.2298 25.6797C11.3498 25.6797 11.4598 25.6497 11.5498 25.5997C11.6398 25.5497 11.6998 25.4697 11.7498 25.3597C11.7898 25.2497 11.8198 25.1197 11.8198 24.9697V21.2397H11.8098Z" fill="#0AC963"/>
<path d="M13.7695 26.6397V21.2397H15.9995C16.3995 21.2397 16.7495 21.3197 17.0495 21.4797C17.3395 21.6397 17.5695 21.8597 17.7295 22.1397C17.8895 22.4197 17.9695 22.7497 17.9695 23.1197C17.9695 23.4897 17.8895 23.8197 17.7295 24.0997C17.5695 24.3797 17.3395 24.5897 17.0395 24.7497C16.7395 24.8997 16.3795 24.9797 15.9695 24.9797H14.5895V23.9497H15.7195C15.9195 23.9497 16.0795 23.9197 16.2095 23.8497C16.3395 23.7797 16.4395 23.6897 16.5095 23.5597C16.5795 23.4397 16.6095 23.2897 16.6095 23.1297C16.6095 22.9697 16.5795 22.8197 16.5095 22.6997C16.4395 22.5797 16.3395 22.4797 16.2095 22.4197C16.0795 22.3497 15.9095 22.3197 15.7195 22.3197H15.0795V26.6697H13.7795L13.7695 26.6397Z" fill="#0AC963"/>
<path d="M18.46 26.6397V21.2397H22.22V22.2997H19.76V23.4097H22.03V24.4697H19.76V25.5797H22.22V26.6397H18.46Z" fill="#0AC963"/>
<path d="M26.4298 22.9999C26.3998 22.8899 26.3598 22.7899 26.2998 22.7099C26.2398 22.6199 26.1698 22.5499 26.0898 22.4899C26.0098 22.4299 25.9098 22.3899 25.7998 22.3499C25.6898 22.3199 25.5698 22.2999 25.4398 22.2999C25.1798 22.2999 24.9498 22.3599 24.7598 22.4899C24.5698 22.6199 24.4198 22.7999 24.3198 23.0399C24.2198 23.2799 24.1598 23.5699 24.1598 23.9199C24.1598 24.2699 24.2098 24.5599 24.3098 24.8099C24.4098 25.0499 24.5598 25.2399 24.7498 25.3699C24.9398 25.4999 25.1698 25.5599 25.4398 25.5599C25.6798 25.5599 25.8798 25.5199 26.0498 25.4399C26.2198 25.3599 26.3398 25.2499 26.4298 25.1099C26.5198 24.9699 26.5598 24.7999 26.5598 24.5999L26.7998 24.6299H25.4898V23.6799H27.8198V24.3899C27.8198 24.8699 27.7198 25.2899 27.5098 25.6299C27.3098 25.9699 27.0198 26.2399 26.6698 26.4199C26.3098 26.5999 25.8998 26.6999 25.4398 26.6999C24.9198 26.6999 24.4698 26.5899 24.0798 26.3699C23.6898 26.1499 23.3898 25.8299 23.1698 25.4099C22.9498 24.9899 22.8398 24.4999 22.8398 23.9399C22.8398 23.4999 22.9098 23.0999 23.0398 22.7599C23.1698 22.4199 23.3598 22.1299 23.5898 21.8899C23.8298 21.6499 24.0998 21.4699 24.4098 21.3499C24.7198 21.2299 25.0598 21.1699 25.4198 21.1699C25.7298 21.1699 26.0198 21.2099 26.2898 21.2999C26.5598 21.3899 26.7998 21.5199 27.0098 21.6799C27.2198 21.8399 27.3898 22.0399 27.5198 22.2599C27.6498 22.4799 27.7298 22.7299 27.7598 22.9999H26.4398H26.4298Z" fill="#0AC963"/>
<path fill-rule="evenodd" clip-rule="evenodd" d="M29.6804 20.1299L27.9404 19.1699V20.1299H29.6804Z" fill="white"/>
</svg>
