<svg width="25" height="24" viewBox="0 0 25 24" fill="none" xmlns="http://www.w3.org/2000/svg">
<g clip-path="url(#clip0_21218_20796)">
<rect width="24" height="24" transform="translate(0.5)" fill="#F2F5FF"/>
<path d="M14.0069 11.9864C14.0069 11.1796 13.3323 10.5254 12.5 10.5254C11.6678 10.5254 10.9931 11.1796 10.9931 11.9864C10.9931 12.7934 11.6678 13.4475 12.5 13.4475C13.3323 13.4475 14.0069 12.7934 14.0069 11.9864Z" fill="#53C1DE"/>
<path fill-rule="evenodd" clip-rule="evenodd" d="M17.394 9.27396C17.7122 8.02019 18.1122 5.69521 16.7021 4.90697C15.2986 4.12216 13.4722 5.62599 12.5078 6.52867C11.5462 5.63499 9.66857 4.13758 8.25967 4.92833C6.85672 5.71576 7.28936 8.0022 7.61463 9.26382C6.30592 9.62423 4.0625 10.4005 4.0625 11.9864C4.0625 13.5679 6.30359 14.4124 7.60455 14.7725C7.27807 16.0411 6.8671 18.2949 8.27184 19.0806C9.68597 19.8712 11.5578 18.4094 12.5311 17.4969C13.5017 18.4048 15.3106 19.8762 16.7143 19.0883C18.1226 18.2979 17.7558 16.0041 17.4305 14.7351C18.6916 14.3743 20.9375 13.5482 20.9375 11.9864C20.9375 10.4157 18.6821 9.63316 17.394 9.27396ZM17.2341 14.0627C17.0205 13.4071 16.7323 12.71 16.3796 11.9899C16.7162 11.2868 16.9933 10.5987 17.2009 9.94737C18.1452 10.2128 20.2167 10.8195 20.2167 11.9864C20.2167 13.1644 18.2289 13.7768 17.2341 14.0627ZM16.3531 18.4834C15.3058 19.0712 13.75 17.6642 13.0332 16.9955C13.5087 16.4912 13.9839 15.905 14.4476 15.254C15.2635 15.1839 16.0342 15.0691 16.7332 14.9125C16.9621 15.81 17.4051 17.8929 16.3531 18.4834ZM8.63203 18.475C7.58455 17.8894 8.06333 15.8782 8.30351 14.9438C8.99469 15.092 9.75982 15.1986 10.5776 15.2629C11.0444 15.8999 11.5334 16.4854 12.0261 16.9982C11.4173 17.5692 9.68441 19.0633 8.63203 18.475ZM4.78334 11.9864C4.78334 10.8041 6.84241 10.2019 7.80821 9.93709C8.01941 10.603 8.29641 11.2993 8.63069 12.0035C8.29208 12.7181 8.01112 13.4255 7.79798 14.0992C6.87708 13.8437 4.78334 13.1695 4.78334 11.9864ZM8.62083 5.53324C9.6726 4.94297 11.3045 6.38053 12.0027 7.02757C11.5125 7.53799 11.028 8.11909 10.5652 8.75239C9.77154 8.82371 9.0118 8.93826 8.31336 9.0917C8.05133 8.07415 7.5702 6.12288 8.62083 5.53324ZM14.9633 9.51211C15.5018 9.57801 16.0176 9.66562 16.502 9.77286C16.3566 10.2248 16.1754 10.6973 15.9619 11.1818C15.6525 10.6125 15.3203 10.0547 14.9633 9.51211ZM12.5081 7.52706C12.8406 7.87629 13.1736 8.2663 13.5011 8.68939C12.8367 8.65895 12.1711 8.6588 11.5066 8.68895C11.8345 8.26977 12.1703 7.88035 12.5081 7.52706ZM9.04428 11.1812C8.83435 10.6985 8.65474 10.2238 8.50806 9.76548C8.98954 9.66099 9.50298 9.57562 10.0379 9.51081C9.67997 10.0522 9.34837 10.6098 9.04428 11.1812ZM10.0533 14.512C9.50067 14.4522 8.97946 14.3711 8.49813 14.2695C8.64712 13.8031 8.83069 13.3182 9.0451 12.8251C9.35339 13.4025 9.69002 13.9655 10.0533 14.512ZM12.528 16.4952C12.1863 16.1377 11.8456 15.7424 11.5127 15.3171C12.181 15.3426 12.8505 15.3426 13.5187 15.3137C13.1901 15.7467 12.8583 16.1427 12.528 16.4952ZM15.9688 12.8C16.1943 13.2984 16.3845 13.7807 16.5355 14.2393C16.0462 14.3475 15.5179 14.4347 14.9613 14.4994C15.321 13.9467 15.6584 13.3802 15.9688 12.8ZM14.0453 14.5842C13.0232 14.655 11.9946 14.6542 10.9721 14.59C10.3911 13.7671 9.87394 12.9017 9.42748 12.0032C9.87175 11.1067 10.3852 10.243 10.9635 9.42138C11.9867 9.34638 13.0163 9.34621 14.0395 9.42182C14.6128 10.2434 15.1255 11.1048 15.5801 11.9933C15.1309 12.8895 14.6147 13.7549 14.0453 14.5842ZM16.342 5.51246C17.3941 6.1008 16.9258 8.19034 16.696 9.09894C15.9959 8.94232 15.2356 8.82574 14.4397 8.75333C13.976 8.11315 13.4955 7.53104 13.0132 7.02721C13.7204 6.36623 15.3002 4.92987 16.342 5.51246Z" fill="#53C1DE"/>
</g>
<defs>
<clipPath id="clip0_21218_20796">
<path d="M0.5 12C0.5 5.37258 5.87258 0 12.5 0C19.1274 0 24.5 5.37258 24.5 12C24.5 18.6274 19.1274 24 12.5 24C5.87258 24 0.5 18.6274 0.5 12Z" fill="white"/>
</clipPath>
</defs>
</svg>
