<svg width="120" height="27" viewBox="0 0 120 27" fill="none" xmlns="http://www.w3.org/2000/svg">
<path d="M34.4997 15.2518C34.4997 15.8317 34.5987 16.3267 34.7967 16.7369C34.9947 17.147 35.2705 17.4864 35.6241 17.7552C35.9777 18.0097 36.3808 18.2007 36.8334 18.328C37.3001 18.4411 37.8022 18.4977 38.3396 18.4977C38.9195 18.4977 39.4145 18.434 39.8246 18.3067C40.2348 18.1653 40.5671 17.9885 40.8217 17.7764C41.0763 17.5642 41.2602 17.3238 41.3733 17.0551C41.4865 16.7722 41.543 16.4893 41.543 16.2065C41.543 15.6266 41.4087 15.2023 41.1399 14.9336C40.8854 14.6507 40.6025 14.4527 40.2914 14.3396C39.7539 14.1416 39.1245 13.9577 38.4032 13.788C37.6961 13.6041 36.8192 13.3708 35.7726 13.0879C35.122 12.9182 34.5775 12.699 34.1391 12.4303C33.7148 12.1474 33.3754 11.8363 33.1208 11.4968C32.8662 11.1574 32.6823 10.7967 32.5692 10.4149C32.4702 10.033 32.4207 9.64407 32.4207 9.24806C32.4207 8.48433 32.5763 7.82667 32.8874 7.27509C33.2127 6.70936 33.637 6.24264 34.1603 5.87492C34.6836 5.5072 35.2776 5.23848 35.9423 5.06876C36.6071 4.8849 37.2789 4.79297 37.9577 4.79297C38.7498 4.79297 39.4923 4.89904 40.1853 5.11119C40.8924 5.30919 41.5077 5.61327 42.031 6.02342C42.5684 6.43357 42.9927 6.94273 43.3038 7.55088C43.615 8.14489 43.7706 8.83791 43.7706 9.62992H41.1187C41.048 8.65405 40.7157 7.9681 40.1216 7.5721C39.5276 7.16195 38.771 6.95687 37.8517 6.95687C37.5405 6.95687 37.2223 6.99223 36.897 7.06294C36.5717 7.11952 36.2747 7.22559 36.006 7.38116C35.7373 7.52259 35.511 7.7206 35.3271 7.97518C35.1574 8.22975 35.0725 8.54797 35.0725 8.92984C35.0725 9.46728 35.2352 9.89157 35.5605 10.2027C35.8999 10.4997 36.3383 10.726 36.8758 10.8816C36.9324 10.8957 37.1516 10.9594 37.5334 11.0725C37.9295 11.1715 38.3679 11.2847 38.8488 11.412C39.3296 11.5392 39.7963 11.6665 40.2489 11.7938C40.7157 11.907 41.048 11.9918 41.246 12.0484C41.741 12.204 42.1724 12.4161 42.5401 12.6848C42.9078 12.9536 43.2119 13.2647 43.4524 13.6183C43.7069 13.9577 43.8908 14.3254 44.0039 14.7215C44.1312 15.1175 44.1949 15.5135 44.1949 15.9095C44.1949 16.7581 44.0181 17.4864 43.6645 18.0946C43.3251 18.6886 42.8725 19.1765 42.3068 19.5584C41.741 19.9403 41.0975 20.2161 40.3762 20.3858C39.6549 20.5696 38.9195 20.6616 38.1699 20.6616C37.3072 20.6616 36.4939 20.5555 35.7302 20.3434C34.9665 20.1312 34.3017 19.8059 33.736 19.3675C33.1703 18.929 32.7177 18.3704 32.3783 17.6915C32.0388 16.9985 31.862 16.1853 31.8479 15.2518H34.4997Z" fill="#1C222B"/>
<path d="M45.0739 9.33292H46.8984V6.04464H49.3169V9.33292H51.502V11.1362H49.3169V16.9914C49.3169 17.246 49.324 17.4652 49.3381 17.6491C49.3664 17.8329 49.4159 17.9885 49.4866 18.1158C49.5715 18.2431 49.6917 18.3421 49.8473 18.4128C50.0028 18.4694 50.215 18.4977 50.4837 18.4977C50.6534 18.4977 50.8231 18.4977 50.9929 18.4977C51.1626 18.4835 51.3323 18.4552 51.502 18.4128V20.2797C51.2333 20.308 50.9716 20.3363 50.7171 20.3646C50.4625 20.3929 50.2008 20.407 49.9321 20.407C49.2957 20.407 48.7795 20.3504 48.3834 20.2373C48.0016 20.11 47.6975 19.9332 47.4712 19.7069C47.2591 19.4665 47.1106 19.1695 47.0257 18.8159C46.955 18.4623 46.9126 18.0592 46.8984 17.6067V11.1362H45.0739V9.33292Z" fill="#1C222B"/>
<path d="M62.4277 17.8612C62.4277 18.1582 62.4631 18.3704 62.5338 18.4977C62.6187 18.625 62.7743 18.6886 63.0005 18.6886C63.0713 18.6886 63.1561 18.6886 63.2551 18.6886C63.3541 18.6886 63.4673 18.6745 63.5946 18.6462V20.3221C63.5097 20.3504 63.3966 20.3787 63.2551 20.407C63.1278 20.4494 62.9935 20.4848 62.852 20.5131C62.7106 20.5414 62.5692 20.5626 62.4277 20.5767C62.2863 20.5909 62.1661 20.5979 62.0671 20.5979C61.5721 20.5979 61.1619 20.4989 60.8366 20.3009C60.5114 20.1029 60.2992 19.7564 60.2002 19.2614C59.7193 19.7281 59.1253 20.0676 58.4182 20.2797C57.7252 20.4919 57.0534 20.5979 56.4028 20.5979C55.9078 20.5979 55.434 20.5272 54.9814 20.3858C54.5288 20.2585 54.1257 20.0676 53.7721 19.813C53.4327 19.5443 53.1569 19.2119 52.9448 18.8159C52.7468 18.4057 52.6478 17.9319 52.6478 17.3945C52.6478 16.7156 52.768 16.1641 53.0084 15.7398C53.263 15.3155 53.5883 14.9831 53.9843 14.7427C54.3944 14.5022 54.847 14.3325 55.342 14.2335C55.8512 14.1204 56.3603 14.0355 56.8695 13.9789C57.3079 13.8941 57.7252 13.8375 58.1212 13.8092C58.5172 13.7668 58.8637 13.7031 59.1607 13.6183C59.4718 13.5334 59.7123 13.4061 59.882 13.2364C60.0658 13.0526 60.1578 12.7838 60.1578 12.4303C60.1578 12.1191 60.08 11.8645 59.9244 11.6665C59.783 11.4685 59.5991 11.32 59.3728 11.221C59.1607 11.1079 58.9202 11.0372 58.6515 11.0089C58.3828 10.9665 58.1282 10.9452 57.8878 10.9452C57.2089 10.9452 56.6503 11.0867 56.2118 11.3695C55.7734 11.6524 55.5259 12.0908 55.4693 12.6848H53.0508C53.0933 11.9777 53.263 11.3907 53.56 10.924C53.857 10.4573 54.2318 10.0825 54.6844 9.79964C55.1511 9.51678 55.6744 9.31877 56.2543 9.20563C56.8341 9.09248 57.4281 9.03591 58.0363 9.03591C58.5737 9.03591 59.1041 9.09248 59.6274 9.20563C60.1507 9.31877 60.6174 9.50264 61.0276 9.75721C61.4519 10.0118 61.7913 10.3442 62.0459 10.7543C62.3005 11.1503 62.4277 11.6383 62.4277 12.2181V17.8612ZM60.0093 14.8063C59.6415 15.0467 59.189 15.1953 58.6515 15.2518C58.1141 15.2943 57.5767 15.365 57.0392 15.464C56.7846 15.5064 56.5371 15.57 56.2967 15.6549C56.0563 15.7256 55.8441 15.8317 55.6603 15.9731C55.4764 16.1004 55.3279 16.2772 55.2147 16.5035C55.1157 16.7156 55.0662 16.9773 55.0662 17.2884C55.0662 17.5572 55.144 17.7834 55.2996 17.9673C55.4552 18.1512 55.639 18.2997 55.8512 18.4128C56.0775 18.5118 56.3179 18.5825 56.5725 18.625C56.8412 18.6674 57.0816 18.6886 57.2938 18.6886C57.5625 18.6886 57.8524 18.6532 58.1636 18.5825C58.4747 18.5118 58.7647 18.3916 59.0334 18.2219C59.3163 18.0522 59.5496 17.84 59.7335 17.5854C59.9173 17.3167 60.0093 16.9914 60.0093 16.6096V14.8063Z" fill="#1C222B"/>
<path d="M65.03 9.33292H67.3V11.4544H67.3424C67.4132 11.1574 67.5475 10.8674 67.7455 10.5846C67.9577 10.3017 68.2052 10.0471 68.488 9.82086C68.785 9.58042 69.1103 9.38949 69.4639 9.24806C69.8175 9.10663 70.1781 9.03591 70.5459 9.03591C70.8287 9.03591 71.0197 9.04298 71.1187 9.05713C71.2318 9.07127 71.3449 9.08541 71.4581 9.09956V11.4332C71.2884 11.4049 71.1116 11.3837 70.9277 11.3695C70.758 11.3412 70.5883 11.3271 70.4186 11.3271C70.0084 11.3271 69.6195 11.412 69.2518 11.5817C68.8982 11.7373 68.587 11.9777 68.3183 12.303C68.0496 12.6141 67.8374 13.0031 67.6819 13.4698C67.5263 13.9365 67.4485 14.474 67.4485 15.0821V20.3009H65.03V9.33292Z" fill="#1C222B"/>
<path d="M72.552 5.15362H74.9705V10.7543H75.0129C75.1826 10.4856 75.3877 10.2452 75.6281 10.033C75.8685 9.82086 76.1302 9.64407 76.4131 9.50264C76.7101 9.34706 77.0141 9.23392 77.3253 9.1632C77.6506 9.07834 77.9688 9.03591 78.2799 9.03591C79.1427 9.03591 79.8923 9.19149 80.5287 9.50264C81.1793 9.79964 81.7167 10.2169 82.141 10.7543C82.5653 11.2776 82.8835 11.8928 83.0957 12.6C83.3078 13.3071 83.4139 14.0638 83.4139 14.87C83.4139 15.6054 83.3149 16.3196 83.1169 17.0126C82.933 17.7057 82.6431 18.3209 82.2471 18.8583C81.8652 19.3816 81.3773 19.8059 80.7833 20.1312C80.1893 20.4424 79.4892 20.5979 78.683 20.5979C78.3153 20.5979 77.9405 20.5696 77.5586 20.5131C77.1909 20.4706 76.8373 20.3787 76.4979 20.2373C76.1585 20.0959 75.8473 19.912 75.5645 19.6857C75.2957 19.4594 75.0695 19.1624 74.8856 18.7947H74.8432V20.3009H72.552V5.15362ZM80.9954 14.8275C80.9954 14.3325 80.9318 13.8517 80.8045 13.3849C80.6772 12.9182 80.4863 12.5081 80.2317 12.1545C79.9771 11.7868 79.6589 11.4968 79.277 11.2847C78.8952 11.0584 78.4567 10.9452 77.9617 10.9452C76.9434 10.9452 76.1726 11.2988 75.6493 12.006C75.1402 12.7131 74.8856 13.6536 74.8856 14.8275C74.8856 15.3791 74.9492 15.8953 75.0765 16.3762C75.218 16.8429 75.423 17.246 75.6918 17.5854C75.9605 17.9249 76.2787 18.1936 76.6464 18.3916C77.0283 18.5896 77.4667 18.6886 77.9617 18.6886C78.5133 18.6886 78.98 18.5755 79.3619 18.3492C79.7438 18.1229 80.0549 17.8329 80.2953 17.4794C80.5499 17.1116 80.7267 16.7015 80.8257 16.2489C80.9389 15.7822 80.9954 15.3084 80.9954 14.8275Z" fill="#1C222B"/>
<path d="M85.5211 5.15362H87.9396V20.3009H85.5211V5.15362Z" fill="#1C222B"/>
<path d="M95.6026 20.5979C94.7257 20.5979 93.9408 20.4565 93.2478 20.1736C92.5689 19.8766 91.989 19.4736 91.5082 18.9644C91.0414 18.4552 90.6808 17.8471 90.4262 17.1399C90.1858 16.4328 90.0655 15.6549 90.0655 14.8063C90.0655 13.9719 90.1858 13.2011 90.4262 12.4939C90.6808 11.7868 91.0414 11.1786 91.5082 10.6694C91.989 10.1603 92.5689 9.76428 93.2478 9.48142C93.9408 9.18441 94.7257 9.03591 95.6026 9.03591C96.4795 9.03591 97.2573 9.18441 97.9362 9.48142C98.6292 9.76428 99.2091 10.1603 99.6758 10.6694C100.157 11.1786 100.517 11.7868 100.758 12.4939C101.012 13.2011 101.14 13.9719 101.14 14.8063C101.14 15.6549 101.012 16.4328 100.758 17.1399C100.517 17.8471 100.157 18.4552 99.6758 18.9644C99.2091 19.4736 98.6292 19.8766 97.9362 20.1736C97.2573 20.4565 96.4795 20.5979 95.6026 20.5979ZM95.6026 18.6886C96.14 18.6886 96.6068 18.5755 97.0028 18.3492C97.3988 18.1229 97.7241 17.8259 97.9786 17.4582C98.2332 17.0904 98.4171 16.6803 98.5302 16.2277C98.6575 15.761 98.7211 15.2872 98.7211 14.8063C98.7211 14.3396 98.6575 13.8729 98.5302 13.4061C98.4171 12.9394 98.2332 12.5293 97.9786 12.1757C97.7241 11.808 97.3988 11.511 97.0028 11.2847C96.6068 11.0584 96.14 10.9452 95.6026 10.9452C95.0651 10.9452 94.5984 11.0584 94.2024 11.2847C93.8064 11.511 93.4811 11.808 93.2265 12.1757C92.972 12.5293 92.781 12.9394 92.6537 13.4061C92.5406 13.8729 92.484 14.3396 92.484 14.8063C92.484 15.2872 92.5406 15.761 92.6537 16.2277C92.781 16.6803 92.972 17.0904 93.2265 17.4582C93.4811 17.8259 93.8064 18.1229 94.2024 18.3492C94.5984 18.5755 95.0651 18.6886 95.6026 18.6886Z" fill="#1C222B"/>
<path d="M102.153 9.33292H104.72L106.863 17.5218H106.905L108.963 9.33292H111.403L113.376 17.5218H113.418L115.646 9.33292H118.107L114.67 20.3009H112.188L110.151 12.1545H110.109L108.093 20.3009H105.547L102.153 9.33292Z" fill="#1C222B"/>
<path d="M23.8448 11.6207H16.0888L21.5729 6.12225C21.792 5.8868 21.9111 5.57554 21.9053 5.25399C21.8995 4.93244 21.7692 4.62568 21.5418 4.39828C21.3144 4.17087 21.0077 4.04056 20.6861 4.03476C20.3646 4.02896 20.0533 4.14814 19.8179 4.3672L14.3302 9.85128V2.09533C14.3302 1.76598 14.1994 1.45012 13.9665 1.21723C13.7336 0.984349 13.4177 0.853516 13.0884 0.853516C12.759 0.853516 12.4432 0.984349 12.2103 1.21723C11.9774 1.45012 11.8466 1.76598 11.8466 2.09533V9.85128L6.36248 4.3672C6.12703 4.14814 5.81577 4.02896 5.49422 4.03476C5.17268 4.04056 4.86592 4.17087 4.63851 4.39828C4.41111 4.62568 4.28079 4.93244 4.27499 5.25399C4.2692 5.57554 4.38837 5.8868 4.60744 6.12225L10.0915 11.6207H2.33556C2.00621 11.6207 1.69035 11.7515 1.45747 11.9844C1.22458 12.2173 1.09375 12.5331 1.09375 12.8625C1.09375 13.1918 1.22458 13.5077 1.45747 13.7406C1.69035 13.9735 2.00621 14.1043 2.33556 14.1043H10.0915L4.60744 19.5776C4.38837 19.8131 4.2692 20.1243 4.27499 20.4459C4.28079 20.7674 4.41111 21.0742 4.63851 21.3016C4.86592 21.529 5.17268 21.6593 5.49422 21.6651C5.81577 21.6709 6.12703 21.5517 6.36248 21.3327L11.8609 15.8486V23.6045C11.8609 23.7676 11.893 23.9291 11.9554 24.0798C12.0178 24.2304 12.1093 24.3673 12.2246 24.4826C12.3399 24.5979 12.4768 24.6894 12.6275 24.7518C12.7782 24.8142 12.9397 24.8463 13.1027 24.8463C13.2658 24.8463 13.4273 24.8142 13.578 24.7518C13.7286 24.6894 13.8655 24.5979 13.9808 24.4826C14.0961 24.3673 14.1876 24.2304 14.25 24.0798C14.3124 23.9291 14.3445 23.7676 14.3445 23.6045V15.8486L19.8179 21.3327C20.0533 21.5517 20.3646 21.6709 20.6861 21.6651C21.0077 21.6593 21.3144 21.529 21.5418 21.3016C21.7692 21.0742 21.8995 20.7674 21.9053 20.4459C21.9111 20.1243 21.792 19.8131 21.5729 19.5776L16.0888 14.09H23.8448C24.1741 14.09 24.49 13.9591 24.7229 13.7262C24.9557 13.4933 25.0866 13.1775 25.0866 12.8481C25.0866 12.5188 24.9557 12.2029 24.7229 11.97C24.49 11.7372 24.1741 11.6063 23.8448 11.6063V11.6207ZM13.0776 14.6283C12.7284 14.6283 12.387 14.5247 12.0966 14.3307C11.8062 14.1367 11.5799 13.8609 11.4462 13.5382C11.3126 13.2156 11.2776 12.8605 11.3457 12.518C11.4139 12.1755 11.582 11.8608 11.829 11.6139C12.0759 11.3669 12.3906 11.1987 12.7331 11.1306C13.0756 11.0625 13.4307 11.0974 13.7534 11.2311C14.076 11.3647 14.3518 11.5911 14.5458 11.8815C14.7399 12.1718 14.8434 12.5132 14.8434 12.8625C14.8406 13.3268 14.6547 13.7711 14.326 14.0991C13.9974 14.4271 13.5526 14.6121 13.0884 14.614L13.0776 14.6283Z" fill="#1B4DFF"/>
</svg>
