<svg width="32" height="32" viewBox="0 0 32 32" fill="none" xmlns="http://www.w3.org/2000/svg">
<path fill-rule="evenodd" clip-rule="evenodd" d="M8.20008 0H18.8987L27.9662 9.45128V27.8341C27.9662 30.1369 26.1031 32 23.8083 32H8.20008C5.89724 32 4.03418 30.1369 4.03418 27.8341V4.1659C4.03414 1.86306 5.8972 0 8.20008 0Z" fill="#E5252A"/>
<path opacity="0.302" fill-rule="evenodd" clip-rule="evenodd" d="M18.8906 0V9.37931H27.9661L18.8906 0Z" fill="white"/>
<path d="M8.66357 23.8758V18.0308H11.1503C11.766 18.0308 12.2538 18.1987 12.6216 18.5425C12.9894 18.8783 13.1733 19.3341 13.1733 19.9018C13.1733 20.4695 12.9894 20.9253 12.6216 21.2612C12.2538 21.605 11.766 21.7729 11.1503 21.7729H10.1588V23.8758H8.66357ZM10.1588 20.5016H10.9824C11.2063 20.5016 11.3822 20.4536 11.5022 20.3416C11.6221 20.2377 11.6861 20.0938 11.6861 19.9019C11.6861 19.71 11.6221 19.566 11.5022 19.4621C11.3823 19.3501 11.2063 19.3022 10.9824 19.3022H10.1588V20.5016ZM13.789 23.8758V18.0308H15.86C16.2678 18.0308 16.6516 18.0867 17.0114 18.2067C17.3712 18.3266 17.6991 18.4946 17.9869 18.7264C18.2748 18.9503 18.5066 19.2541 18.6746 19.638C18.8345 20.0218 18.9224 20.4616 18.9224 20.9573C18.9224 21.4451 18.8345 21.8849 18.6746 22.2686C18.5066 22.6525 18.2748 22.9563 17.9869 23.1802C17.699 23.412 17.3712 23.58 17.0114 23.6999C16.6516 23.8198 16.2678 23.8758 15.86 23.8758H13.789ZM15.2523 22.6045H15.6841C15.9159 22.6045 16.1318 22.5805 16.3317 22.5245C16.5236 22.4686 16.7075 22.3806 16.8835 22.2607C17.0514 22.1407 17.1873 21.9728 17.2833 21.7489C17.3792 21.525 17.4272 21.2611 17.4272 20.9573C17.4272 20.6455 17.3792 20.3816 17.2833 20.1577C17.1873 19.9339 17.0514 19.7659 16.8835 19.646C16.7075 19.5261 16.5237 19.4381 16.3317 19.3821C16.1318 19.3262 15.9159 19.3021 15.6841 19.3021H15.2523V22.6045ZM19.6741 23.8758V18.0308H23.832V19.3021H21.1693V20.2377H23.2962V21.501H21.1693V23.8758H19.6741Z" fill="white"/>
</svg>
