<svg width="19" height="18" viewBox="0 0 19 18" fill="none" xmlns="http://www.w3.org/2000/svg">
<path d="M11.0069 8.98645C11.0069 8.17958 10.3323 7.52542 9.5 7.52542C8.66781 7.52542 7.99313 8.17958 7.99313 8.98645C7.99313 9.79339 8.66781 10.4475 9.5 10.4475C10.3323 10.4475 11.0069 9.79339 11.0069 8.98645Z" fill="#53C1DE"/>
<path fill-rule="evenodd" clip-rule="evenodd" d="M14.394 6.27396C14.7122 5.02019 15.1122 2.69521 13.7021 1.90697C12.2986 1.12216 10.4722 2.62599 9.50784 3.52867C8.54624 2.63499 6.66857 1.13758 5.25967 1.92833C3.85672 2.71576 4.28936 5.0022 4.61463 6.26382C3.30592 6.62423 1.0625 7.40048 1.0625 8.98645C1.0625 10.5679 3.30359 11.4124 4.60455 11.7725C4.27807 13.0411 3.8671 15.2949 5.27184 16.0806C6.68597 16.8712 8.55783 15.4094 9.53114 14.4969C10.5017 15.4048 12.3106 16.8762 13.7143 16.0883C15.1226 15.2979 14.7558 13.0041 14.4305 11.7351C15.6916 11.3743 17.9375 10.5482 17.9375 8.98645C17.9375 7.4157 15.6821 6.63316 14.394 6.27396ZM14.2341 11.0627C14.0205 10.4071 13.7323 9.71004 13.3796 8.98992C13.7162 8.28682 13.9933 7.5987 14.2009 6.94737C15.1452 7.21281 17.2167 7.81948 17.2167 8.98645C17.2167 10.1644 15.2289 10.7768 14.2341 11.0627ZM13.3531 15.4834C12.3058 16.0712 10.75 14.6642 10.0332 13.9955C10.5087 13.4912 10.9839 12.905 11.4476 12.254C12.2635 12.1839 13.0342 12.0691 13.7332 11.9125C13.9621 12.81 14.4051 14.8929 13.3531 15.4834ZM5.63203 15.475C4.58455 14.8894 5.06333 12.8782 5.30351 11.9438C5.99469 12.092 6.75982 12.1986 7.57759 12.2629C8.04444 12.8999 8.53338 13.4854 9.02614 13.9982C8.41733 14.5692 6.68441 16.0633 5.63203 15.475ZM1.78334 8.98645C1.78334 7.80411 3.84241 7.20187 4.80821 6.93709C5.01941 7.60305 5.29641 8.29935 5.63069 9.00346C5.29208 9.71808 5.01112 10.4255 4.79798 11.0992C3.87708 10.8437 1.78334 10.1695 1.78334 8.98645ZM5.62083 2.53324C6.6726 1.94297 8.30453 3.38053 9.00269 4.02757C8.51247 4.53799 8.028 5.11909 7.5652 5.75239C6.77154 5.82371 6.0118 5.93826 5.31336 6.0917C5.05133 5.07415 4.5702 3.12288 5.62083 2.53324ZM11.9633 6.51211C12.5018 6.57801 13.0176 6.66562 13.502 6.77286C13.3566 7.22478 13.1754 7.69733 12.9619 8.18175C12.6525 7.61246 12.3203 7.05465 11.9633 6.51211ZM9.50806 4.52706C9.84055 4.87629 10.1736 5.2663 10.5011 5.68939C9.83667 5.65895 9.17111 5.6588 8.50665 5.68895C8.8345 5.26977 9.17035 4.88035 9.50806 4.52706ZM6.04428 8.18124C5.83435 7.69848 5.65474 7.22384 5.50806 6.76548C5.98954 6.66099 6.50298 6.57562 7.03794 6.51081C6.67997 7.05215 6.34837 7.60977 6.04428 8.18124ZM7.05332 11.512C6.50067 11.4522 5.97946 11.3711 5.49813 11.2695C5.64712 10.8031 5.83069 10.3182 6.0451 9.8251C6.35339 10.4025 6.69002 10.9655 7.05332 11.512ZM9.52801 13.4952C9.18633 13.1377 8.84556 12.7424 8.5127 12.3171C9.18097 12.3426 9.85052 12.3426 10.5187 12.3137C10.1901 12.7467 9.85825 13.1427 9.52801 13.4952ZM12.9688 9.79998C13.1943 10.2984 13.3845 10.7807 13.5355 11.2393C13.0462 11.3475 12.5179 11.4347 11.9613 11.4994C12.321 10.9467 12.6584 10.3802 12.9688 9.79998ZM11.0453 11.5842C10.0232 11.655 8.99463 11.6542 7.97214 11.59C7.39112 10.7671 6.87394 9.90167 6.42748 9.00325C6.87175 8.10668 7.3852 7.24299 7.96348 6.42138C8.98674 6.34638 10.0163 6.34621 11.0395 6.42182C11.6128 7.24338 12.1255 8.10483 12.5801 8.99332C12.1309 9.88945 11.6147 10.7549 11.0453 11.5842ZM13.342 2.51246C14.3941 3.1008 13.9258 5.19034 13.696 6.09894C12.9959 5.94232 12.2356 5.82574 11.4397 5.75333C10.976 5.11315 10.4955 4.53104 10.0132 4.02721C10.7204 3.36623 12.3002 1.92987 13.342 2.51246Z" fill="#53C1DE"/>
</svg>
