<svg width="20" height="20" viewBox="0 0 20 20" fill="none" xmlns="http://www.w3.org/2000/svg">
<g clip-path="url(#clip0_21594_47897)">
<path d="M18.5129 1.43392C17.8818 0.802286 16.9763 0.46875 15.8947 0.46875C14.2529 0.46875 12.142 1.24888 9.94727 2.66514L10.0536 2.73319C10.4546 2.9953 10.8641 3.28328 11.2696 3.58813C11.3467 3.64437 11.4226 3.70455 11.4985 3.76305C13.1763 2.7675 14.7293 2.22024 15.8947 2.22024C16.51 2.22024 16.9746 2.37266 17.2744 2.6702C17.9167 3.31252 17.8801 4.7001 17.1737 6.47633C16.8974 7.15834 16.5685 7.81783 16.19 8.44886C16.1421 8.52986 16.0938 8.61085 16.0437 8.69241C15.8019 9.08612 15.5341 9.48715 15.2484 9.88425C15.2208 9.92193 15.1922 9.95962 15.1646 9.99674C14.4335 10.9923 13.6268 11.93 12.7517 12.8017C12.1797 13.3743 11.5756 13.921 10.9557 14.4283L10.755 14.592L10.9687 14.7388C11.2404 14.9255 11.5081 15.1005 11.7651 15.2585C11.8922 15.3367 12.0283 15.4177 12.1926 15.5116L12.3113 15.5797L12.4153 15.4914C12.9592 15.0296 13.4896 14.5414 13.9902 14.0402C14.7101 13.3208 15.3877 12.5602 16.0195 11.7623C16.0825 11.683 16.1444 11.6031 16.2057 11.5238L16.2709 11.4389C16.3276 11.3639 16.3838 11.2889 16.4397 11.2139L16.4869 11.1503C16.5428 11.0753 16.5979 11.0003 16.6523 10.9254L16.7001 10.859C16.7563 10.7797 16.8126 10.7009 16.8688 10.6228C16.9993 10.436 17.1146 10.2656 17.2221 10.1019C17.8471 9.16348 18.3765 8.16483 18.8026 7.12091C19.793 4.63092 19.6907 2.61114 18.5129 1.43392Z" fill="#94ABFF"/>
<path d="M15.4484 7.536C14.9838 6.99042 14.4922 6.4589 13.9905 5.95662C13.4888 5.45435 12.9595 4.96502 12.4207 4.5083C12.1215 4.25407 11.8121 4.00209 11.4988 3.76305C11.4229 3.7068 11.347 3.64606 11.2699 3.58813C10.8644 3.28328 10.4549 2.9953 10.0539 2.73319L9.94756 2.66514C9.54653 2.40641 9.14382 2.16511 8.74897 1.94857C6.98118 0.980584 5.33881 0.46875 3.9996 0.46875C2.90225 0.46875 2.02145 0.793287 1.38081 1.43392C0.203595 2.61114 0.101228 4.63092 1.09171 7.12597C1.32319 7.70231 1.58973 8.26394 1.88983 8.80771L2.04057 9.08275L2.22 8.82515C2.49672 8.43143 2.79932 8.02196 3.11992 7.61643L3.19642 7.52025L3.14017 7.40776C2.07151 5.23274 1.86902 3.4177 2.61596 2.67076C2.91575 2.37097 3.38034 2.2208 3.99623 2.2208C4.91022 2.2208 6.07113 2.55827 7.35296 3.19553C7.77424 3.40533 8.2062 3.6455 8.63592 3.91041C9.03245 4.15452 9.43404 4.42225 9.83001 4.70685C10.2024 4.97458 10.5809 5.26537 10.9549 5.57134C11.5736 6.07755 12.1794 6.62538 12.7492 7.19571C13.3189 7.76604 13.8741 8.37687 14.3831 8.99557C14.6553 9.32686 14.9163 9.66377 15.1621 10.0001C15.1896 9.96187 15.2183 9.92418 15.2459 9.88762C15.5316 9.49053 15.7993 9.0895 16.0412 8.69578C16.0913 8.61422 16.1396 8.53323 16.1874 8.45224C15.9518 8.14289 15.7032 7.83691 15.4484 7.536Z" fill="#1B4DFF"/>
<path d="M9.8409 17.2674C9.43987 17.0053 9.0304 16.7179 8.62431 16.4124L8.39539 16.2375C6.71646 17.2331 5.16465 17.7803 3.99981 17.7803C3.3811 17.7803 2.91933 17.6279 2.61954 17.3304C1.73761 16.4484 2.17689 14.1469 3.7062 11.5545C3.75401 11.4735 3.80238 11.392 3.85244 11.3104C4.09486 10.9167 4.36203 10.5129 4.64719 10.1163C4.67419 10.0786 4.70344 10.041 4.73043 10.0038C5.46085 9.00806 6.26719 8.07027 7.14224 7.19886C7.71482 6.62628 8.3189 6.07958 8.93816 5.57224L9.13896 5.40801L8.92523 5.26121C8.65468 5.0756 8.38696 4.90067 8.12935 4.74206C8.00055 4.66275 7.865 4.58232 7.70189 4.48896L7.58321 4.4209L7.47915 4.5092C6.9347 4.97098 6.40486 5.45919 5.90428 5.96034C5.18619 6.67741 4.51012 7.43536 3.87944 8.23041C3.81307 8.31421 3.74783 8.39914 3.68202 8.48351L3.63027 8.55044C3.57009 8.62469 3.51047 8.70512 3.45422 8.78443L3.41541 8.83617C3.35917 8.91435 3.30292 8.99253 3.24668 9.07015L3.20056 9.13484C3.14431 9.21414 3.08807 9.29288 3.03182 9.37107C2.90077 9.55893 2.7849 9.72991 2.67747 9.89415C2.05273 10.8326 1.52345 11.8313 1.09754 12.8752C0.105929 15.3685 0.208295 17.39 1.38551 18.5672C2.01265 19.1988 2.91764 19.5318 3.99981 19.5318C5.6433 19.5318 7.75194 18.7517 9.94721 17.3354L9.8409 17.2674Z" fill="#94ABFF"/>
<path d="M18.8026 12.8743C18.5707 12.2982 18.3042 11.7366 18.0045 11.1926L17.8538 10.9175L17.6744 11.1751C17.3988 11.5688 17.0967 11.9761 16.7778 12.3793L16.7013 12.4761L16.7576 12.5886C16.9195 12.9165 17.0607 13.2309 17.1771 13.5239C17.8836 15.3002 17.9201 16.6877 17.2778 17.3301C16.978 17.6299 16.514 17.78 15.8981 17.78C14.9841 17.78 13.8232 17.4426 12.5414 16.8047C12.1195 16.5949 11.6876 16.3548 11.2584 16.0904C10.8647 15.8469 10.4603 15.5786 10.0638 15.294C9.69087 15.0257 9.3129 14.7349 8.93886 14.4295C8.32016 13.9233 7.7144 13.3749 7.14463 12.8051C6.57486 12.2353 6.01972 11.624 5.51351 11.0053C5.23735 10.6678 4.97637 10.3303 4.73395 9.99902C4.70639 10.0373 4.6777 10.075 4.6507 10.1115C4.36554 10.508 4.09837 10.9096 3.85596 11.3056C3.8059 11.3872 3.75753 11.4687 3.70972 11.5497C3.9482 11.8579 4.1968 12.165 4.45216 12.4648C4.91506 13.0087 5.40496 13.5391 5.90723 14.0397C6.4095 14.5403 6.93652 15.0364 7.47423 15.492C7.77346 15.7456 8.08281 15.9954 8.39609 16.2372L8.62501 16.4121C9.03111 16.7175 9.44057 17.005 9.8416 17.2671L9.94791 17.3351C10.3484 17.5939 10.7511 17.8351 11.1459 18.0511C12.9137 19.0191 14.5561 19.5309 15.8959 19.5315C16.9927 19.5315 17.8735 19.207 18.5135 18.5663C19.6919 17.3891 19.7942 15.3677 18.8026 12.8743Z" fill="#1B4DFF"/>
</g>
<defs>
<clipPath id="clip0_21594_47897">
<rect width="20" height="20" fill="white"/>
</clipPath>
</defs>
</svg>
