<svg width="20" height="20" viewBox="0 0 20 20" fill="none" xmlns="http://www.w3.org/2000/svg">
<path d="M15.9807 18.0905C15.466 18.0906 14.9672 17.9121 14.5694 17.5856C14.1715 17.2591 13.8991 16.8047 13.7987 16.2999C13.6983 15.7951 13.7761 15.2711 14.0187 14.8172C14.2614 14.3632 14.654 14.0075 15.1295 13.8106C15.6051 13.6137 16.1342 13.5878 16.6267 13.7373C17.1192 13.8869 17.5447 14.2025 17.8305 14.6306C18.1164 15.0586 18.2449 15.5725 18.1943 16.0847C18.1437 16.597 17.917 17.0758 17.5529 17.4396C17.3469 17.6466 17.1018 17.8107 16.832 17.9224C16.5621 18.0341 16.2728 18.0913 15.9807 18.0905Z" fill="#FF7A72"/>
<path d="M3.89187 6.22897C3.4519 6.22881 3.02184 6.09828 2.65602 5.85385C2.29019 5.60943 2.005 5.26207 1.83647 4.85566C1.66794 4.44925 1.62362 4.00201 1.70912 3.57042C1.79462 3.13884 2.0061 2.74228 2.31685 2.43081C2.73427 2.0136 3.30028 1.77924 3.89045 1.77924C4.48062 1.77924 5.04664 2.0136 5.46406 2.43081C5.67081 2.6374 5.83482 2.88271 5.94672 3.15272C6.05862 3.42273 6.11622 3.71214 6.11622 4.00441C6.11622 4.29669 6.05862 4.5861 5.94672 4.85611C5.83482 5.12612 5.67081 5.37143 5.46406 5.57802C5.25814 5.7852 5.01313 5.94943 4.74325 6.06117C4.47336 6.17291 4.18397 6.22995 3.89187 6.22897Z" fill="#FF7A72"/>
<path d="M15.8795 6.16263C15.4396 6.16247 15.0095 6.03194 14.6437 5.78751C14.2779 5.54309 13.9927 5.19573 13.8241 4.78932C13.6556 4.38291 13.6113 3.93567 13.6968 3.50409C13.7823 3.0725 13.9938 2.67594 14.3045 2.36447C14.5632 2.10523 14.8818 1.91381 15.2321 1.80717C15.5824 1.70052 15.9537 1.68196 16.3129 1.75313C16.6721 1.82429 17.0082 1.98299 17.2915 2.21514C17.5747 2.44729 17.7962 2.74573 17.9365 3.084C18.0768 3.42228 18.1314 3.78993 18.0956 4.15438C18.0598 4.51883 17.9346 4.86881 17.7312 5.1733C17.5277 5.47779 17.2523 5.72739 16.9293 5.89996C16.6063 6.07254 16.2457 6.16276 15.8795 6.16263Z" fill="#FF7A72"/>
<path d="M3.94965 18.0902C3.50984 18.0904 3.07982 17.9603 2.71395 17.7162C2.34807 17.4722 2.06275 17.1251 1.89405 16.719C1.72534 16.3128 1.68082 15.8657 1.7661 15.4343C1.85139 15.0028 2.06266 14.6063 2.37321 14.2949C2.46902 14.1995 2.57428 14.1142 2.68737 14.0402C2.72558 14.0133 2.75954 13.992 2.79633 13.9708C2.87841 13.9227 2.96048 13.8803 3.0369 13.8449C3.07935 13.8265 3.12181 13.8067 3.16709 13.7897C3.25683 13.7556 3.3485 13.7267 3.44162 13.7034L3.49823 13.6878L3.53219 13.6793L4.02748 13.6453C4.08974 13.6453 4.15767 13.6553 4.22842 13.6652H4.25673H4.31899H4.3388H4.36144H4.38125H4.49022C4.92208 13.6617 5.34895 13.5724 5.74593 13.4023C6.14292 13.2322 6.50208 12.9848 6.80251 12.6746C7.10428 12.3676 7.34171 12.0034 7.50087 11.6034C7.66004 11.2034 7.73773 10.7757 7.72941 10.3453V10.3212V10.2944C7.72565 10.2705 7.72328 10.2464 7.72233 10.2222C7.72233 10.1939 7.7195 10.1656 7.71384 10.1373V10.0878C7.71384 10.0439 7.70535 10.0029 7.70252 9.9604L7.73931 9.46369C7.74244 9.45124 7.74621 9.43896 7.75063 9.4269L7.75912 9.39577C7.78051 9.29964 7.8084 9.20509 7.84261 9.11275C7.85827 9.06845 7.87622 9.02499 7.89639 8.98256C7.93155 8.90324 7.97075 8.82578 8.01384 8.75048C8.03507 8.7151 8.0563 8.67972 8.08035 8.64434C8.15569 8.53139 8.24145 8.42574 8.33649 8.32877C8.75458 7.91143 9.32135 7.67727 9.91209 7.6778C10.5028 7.67833 11.0692 7.91351 11.4865 8.33161C11.9039 8.7497 12.138 9.31646 12.1375 9.90721C12.137 10.498 11.9018 11.0643 11.4837 11.4816C11.3872 11.5762 11.282 11.6614 11.1695 11.7364C11.1327 11.7618 11.0974 11.7831 11.062 11.8029C10.9844 11.85 10.904 11.8925 10.8214 11.9302C10.7776 11.95 10.7337 11.9699 10.6926 11.9854C10.6046 12.0188 10.5143 12.0458 10.4224 12.0661L10.3686 12.0802L10.3332 12.0916L9.83226 12.1269C9.77424 12.1269 9.71197 12.1156 9.64688 12.1071H9.60301H9.54075H9.52376H9.49829H9.36952C8.50199 12.1187 7.67432 12.4732 7.06736 13.0931C6.46041 13.7131 6.12352 14.5481 6.13033 15.4156V15.4411V15.4652C6.13409 15.4891 6.13645 15.5132 6.13741 15.5373C6.13741 15.5671 6.13741 15.594 6.1459 15.6223C6.14729 15.6483 6.15012 15.6743 6.15439 15.7001C6.15439 15.734 6.15439 15.768 6.15439 15.802V15.8133L6.11901 16.2902C6.11901 16.3001 6.10061 16.3553 6.09637 16.3723C6.07551 16.4684 6.04809 16.5629 6.01429 16.6553C5.99942 16.6983 5.98193 16.7404 5.96193 16.7812C5.92322 16.8659 5.88024 16.9486 5.83316 17.0289C5.81193 17.0628 5.78787 17.1025 5.7624 17.1393C5.68828 17.2506 5.60344 17.3544 5.5091 17.4492C5.09474 17.861 4.53387 18.0916 3.94965 18.0902Z" fill="#FF7A72"/>
<path d="M9.95977 18.0904C9.52025 18.0903 9.09059 17.9601 8.72502 17.7161C8.35945 17.4721 8.07434 17.1253 7.9057 16.7194C7.73705 16.3135 7.69241 15.8668 7.77742 15.4356C7.86243 15.0043 8.07327 14.608 8.38334 14.2965C8.48053 14.2007 8.58668 14.1144 8.70032 14.0389C8.73287 14.0163 8.76825 13.9951 8.80504 13.9738C8.88346 13.9268 8.96423 13.8838 9.04703 13.845L9.1758 13.7899C9.26371 13.7583 9.35351 13.7323 9.44467 13.712L9.53241 13.6866L10.0362 13.6498C10.0956 13.6498 10.1593 13.6611 10.2258 13.6696H10.264H10.3305H10.3546H10.3702H10.3914H10.5018C11.3685 13.6569 12.1951 13.3019 12.8012 12.6821C13.4072 12.0623 13.7435 11.2279 13.7367 10.361V10.2577L13.7282 10.2464C13.7274 10.2427 13.7274 10.2388 13.7282 10.2351V10.1615L13.7197 10.0908C13.7197 10.0511 13.7098 10.0129 13.7084 9.97331L13.7424 9.49217C13.7424 9.47943 13.7622 9.42 13.7664 9.40302C13.7839 9.31017 13.807 9.21849 13.8358 9.12849C13.8518 9.0846 13.8703 9.04162 13.8909 8.99971C13.929 8.91635 13.9715 8.8351 14.0183 8.75631L14.0282 8.74075C14.0452 8.71103 14.0622 8.68273 14.082 8.65442C14.158 8.54068 14.2442 8.43411 14.3395 8.33602C14.7572 7.91873 15.3234 7.68433 15.9138 7.68433C16.5042 7.68433 17.0705 7.91873 17.4882 8.33602C17.9041 8.75441 18.1375 9.32039 18.1375 9.91033C18.1375 10.5003 17.9041 11.0663 17.4882 11.4846C17.3904 11.5784 17.2848 11.6636 17.1726 11.7394L17.099 11.7861L17.0608 11.8101C16.9847 11.8549 16.9063 11.8955 16.8259 11.9318C16.7806 11.953 16.7396 11.9714 16.6957 11.9884C16.6065 12.0208 16.5153 12.0472 16.4226 12.0677L16.366 12.0847L16.332 12.0931L15.8367 12.1285C15.7646 12.1285 15.6867 12.1144 15.6103 12.1045H15.5452H15.5339H15.4914H15.3811C14.5121 12.1142 13.6824 12.4683 13.0743 13.0892C12.4662 13.71 12.1293 14.5468 12.1376 15.4158V15.4413V15.4653C12.139 15.4908 12.139 15.5163 12.1376 15.5418C12.1376 15.5672 12.1376 15.5941 12.1447 15.6182C12.1518 15.6422 12.1447 15.6663 12.1447 15.6932C12.1502 15.7307 12.1535 15.7685 12.1546 15.8064L12.1376 16.2946L12.1164 16.371C12.095 16.467 12.0676 16.5615 12.0343 16.654C12.0202 16.6937 12.0018 16.7333 11.9848 16.7729L11.9777 16.7871C11.9407 16.8677 11.8991 16.9461 11.8532 17.022C11.8305 17.0602 11.8093 17.097 11.7853 17.1323C11.5837 17.4303 11.3115 17.6737 10.993 17.8409C10.6744 18.008 10.3195 18.0938 9.95977 18.0904Z" fill="#AB0A00"/>
<path d="M3.95097 12.0859C3.51076 12.0863 3.08032 11.9562 2.71406 11.712C2.34779 11.4678 2.06217 11.1205 1.89329 10.7139C1.7244 10.3074 1.67985 9.85992 1.76526 9.42808C1.85067 8.99623 2.06221 8.59941 2.37313 8.28777C2.47033 8.193 2.57595 8.10726 2.6887 8.03164L2.79766 7.9623C2.87408 7.91701 2.95332 7.87598 3.03681 7.83635C3.07927 7.81796 3.12172 7.79815 3.16842 7.78116C3.2553 7.74942 3.34417 7.72342 3.43446 7.70333L3.49106 7.68777C3.50077 7.68429 3.5107 7.68145 3.52078 7.67928L4.02456 7.64248C4.08966 7.64248 4.16607 7.65522 4.23541 7.66512H4.25098H4.31749H4.33871H4.35994H4.49579C4.92694 7.66112 5.353 7.57149 5.74921 7.40144C6.14543 7.23139 6.50391 6.98431 6.80384 6.67455C7.10539 6.36717 7.34258 6.00269 7.50149 5.60249C7.66041 5.20228 7.73786 4.77438 7.72932 4.34386V4.3198V4.29575C7.72432 4.26866 7.72148 4.24121 7.72083 4.21367V4.14575L7.70243 4.08065C7.70243 4.04103 7.69253 3.99857 7.69111 3.95754L7.72507 3.49055V3.47923V3.47074C7.72507 3.45942 7.7463 3.39715 7.7463 3.39715C7.76781 3.30121 7.79522 3.20669 7.82838 3.11413C7.84394 3.07168 7.86375 3.02922 7.88356 2.98677C7.92072 2.90297 7.96326 2.82167 8.01092 2.74337V2.73064C8.03074 2.69809 8.04913 2.66554 8.07177 2.63441C8.14611 2.52237 8.23093 2.41766 8.32508 2.32167C8.74318 1.90282 9.31053 1.66722 9.90234 1.66669C10.4941 1.66616 11.0619 1.90074 11.4808 2.31884C11.8996 2.73693 12.1352 3.30429 12.1358 3.8961C12.1363 4.48791 11.9017 5.05569 11.4836 5.47453C11.3869 5.5685 11.2818 5.6533 11.1695 5.72784C11.1355 5.7519 11.1058 5.76888 11.0761 5.78727L11.0591 5.79718C10.977 5.84529 10.8977 5.88775 10.8213 5.92312C10.7761 5.94294 10.735 5.96275 10.6926 5.97831C10.6032 6.01074 10.512 6.03768 10.4194 6.05897C10.3998 6.06313 10.3805 6.06833 10.3614 6.07454L10.326 6.08445L9.83217 6.11841C9.76991 6.11841 9.7034 6.10709 9.63406 6.0986H9.60292H9.53924H9.49821H9.47556H9.36519C8.49815 6.11128 7.67135 6.46645 7.06527 7.08658C6.45918 7.70672 6.12305 8.54145 6.13024 9.40854V9.4326V9.45807C6.13407 9.48291 6.13643 9.50795 6.13732 9.53307C6.13732 9.55996 6.13732 9.58543 6.14439 9.6109C6.15147 9.63637 6.14439 9.65901 6.15289 9.68449C6.15782 9.72109 6.16066 9.75794 6.16138 9.79487L6.126 10.2802C6.12336 10.2931 6.12006 10.3059 6.11609 10.3185L6.10336 10.3623C6.08311 10.4584 6.05616 10.553 6.0227 10.6453C6.00713 10.6878 5.9859 10.7317 5.96609 10.7755C5.93012 10.8573 5.88998 10.9371 5.84581 11.0147C5.82317 11.0543 5.80194 11.0897 5.77788 11.1237C5.7029 11.2369 5.61712 11.3426 5.52175 11.4392C5.31581 11.646 5.071 11.8099 4.80141 11.9217C4.53182 12.0334 4.24279 12.0907 3.95097 12.0902V12.0859Z" fill="#AB0A00"/>
</svg>
