<svg width="19" height="18" viewBox="0 0 19 18" fill="none" xmlns="http://www.w3.org/2000/svg">
<path d="M14.8827 16.2815C14.4194 16.2816 13.9705 16.121 13.6124 15.8271C13.2543 15.5333 13.0092 15.1243 12.9188 14.67C12.8285 14.2156 12.8985 13.744 13.1169 13.3355C13.3353 12.927 13.6886 12.6068 14.1166 12.4296C14.5446 12.2524 15.0208 12.2291 15.464 12.3637C15.9073 12.4982 16.2902 12.7823 16.5475 13.1676C16.8047 13.5528 16.9204 14.0153 16.8749 14.4763C16.8293 14.9373 16.6253 15.3683 16.2976 15.6957C16.1122 15.882 15.8916 16.0297 15.6488 16.1302C15.4059 16.2308 15.1455 16.2822 14.8827 16.2815Z" fill="#FF7A72"/>
<path d="M4.00266 5.60632C3.60669 5.60618 3.21964 5.4887 2.8904 5.26872C2.56115 5.04873 2.30448 4.73611 2.1528 4.37034C2.00113 4.00457 1.96124 3.60206 2.03819 3.21363C2.11514 2.82521 2.30547 2.4683 2.58515 2.18798C2.96082 1.81249 3.47024 1.60156 4.00139 1.60156C4.53254 1.60156 5.04196 1.81249 5.41763 2.18798C5.60371 2.37391 5.75132 2.59469 5.85203 2.8377C5.95274 3.0807 6.00458 3.34117 6.00458 3.60422C6.00458 3.86727 5.95274 4.12774 5.85203 4.37075C5.75132 4.61376 5.60371 4.83453 5.41763 5.02047C5.23231 5.20693 5.0118 5.35473 4.7689 5.4553C4.52601 5.55587 4.26556 5.6072 4.00266 5.60632Z" fill="#FF7A72"/>
<path d="M14.7917 5.54678C14.3958 5.54664 14.0087 5.42916 13.6795 5.20918C13.3502 4.98919 13.0935 4.67657 12.9419 4.3108C12.7902 3.94503 12.7503 3.54252 12.8273 3.15409C12.9042 2.76567 13.0945 2.40876 13.3742 2.12844C13.607 1.89512 13.8937 1.72284 14.209 1.62686C14.5243 1.53089 14.8585 1.51418 15.1818 1.57823C15.5051 1.64228 15.8076 1.7851 16.0625 1.99404C16.3173 2.20298 16.5168 2.47157 16.643 2.77602C16.7692 3.08046 16.8184 3.41135 16.7862 3.73936C16.754 4.06736 16.6413 4.38234 16.4582 4.65639C16.2751 4.93043 16.0272 5.15507 15.7365 5.31038C15.4458 5.4657 15.1213 5.5469 14.7917 5.54678Z" fill="#FF7A72"/>
<path d="M4.05446 16.2813C3.65863 16.2815 3.27162 16.1644 2.94233 15.9448C2.61304 15.7251 2.35626 15.4128 2.20442 15.0472C2.05259 14.6817 2.01252 14.2793 2.08927 13.891C2.16603 13.5027 2.35617 13.1458 2.63567 12.8655C2.7219 12.7797 2.81663 12.7029 2.91841 12.6363C2.9528 12.6121 2.98337 12.593 3.01648 12.5739C3.09035 12.5306 3.16422 12.4924 3.23299 12.4605C3.2712 12.444 3.30941 12.4261 3.35016 12.4109C3.43093 12.3801 3.51343 12.3542 3.59724 12.3332L3.64818 12.3192L3.67875 12.3115L4.12451 12.2809C4.18055 12.2809 4.24168 12.2899 4.30536 12.2988H4.33083H4.38687H4.4047H4.42508H4.44291H4.54098C4.92966 12.2957 5.31383 12.2153 5.67112 12.0622C6.0284 11.9091 6.35166 11.6865 6.62204 11.4073C6.89363 11.131 7.10732 10.8032 7.25057 10.4432C7.39382 10.0832 7.46374 9.69828 7.45625 9.31092V9.28926V9.26507C7.45286 9.24356 7.45074 9.22187 7.44988 9.20011C7.44988 9.17464 7.44733 9.14917 7.44224 9.1237V9.07912C7.44224 9.03964 7.43459 9.0027 7.43205 8.9645L7.46516 8.51746C7.46797 8.50625 7.47137 8.4952 7.47535 8.48435L7.48299 8.45633C7.50224 8.36982 7.52734 8.28472 7.55813 8.20161C7.57222 8.16174 7.58838 8.12263 7.60653 8.08444C7.63817 8.01306 7.67346 7.94334 7.71224 7.87557C7.73134 7.84373 7.75045 7.81189 7.7721 7.78005C7.83991 7.67839 7.91708 7.58331 8.00262 7.49604C8.37891 7.12043 8.88899 6.90968 9.42066 6.91016C9.95233 6.91063 10.462 7.1223 10.8377 7.49858C11.2133 7.87487 11.424 8.38496 11.4235 8.91663C11.4231 9.4483 11.2114 9.95801 10.8351 10.3336C10.7482 10.4187 10.6536 10.4954 10.5524 10.5629C10.5193 10.5858 10.4874 10.6049 10.4556 10.6227C10.3857 10.6651 10.3134 10.7034 10.2391 10.7373C10.1996 10.7552 10.1601 10.773 10.1232 10.787C10.0439 10.8171 9.96264 10.8413 9.8799 10.8596L9.83151 10.8723L9.79967 10.8825L9.34881 10.9144C9.2966 10.9144 9.24056 10.9042 9.18197 10.8965H9.14249H9.08645H9.07117H9.04824H8.93235C8.15157 10.907 7.40667 11.226 6.86041 11.784C6.31415 12.3419 6.01095 13.0934 6.01708 13.8742V13.8971V13.9188C6.02046 13.9403 6.02259 13.962 6.02345 13.9837C6.02345 14.0105 6.02345 14.0347 6.03109 14.0602C6.03234 14.0836 6.03489 14.107 6.03873 14.1302C6.03873 14.1608 6.03873 14.1913 6.03873 14.2219V14.2321L6.00689 14.6613C6.00689 14.6702 5.99033 14.7199 5.98651 14.7352C5.96774 14.8217 5.94306 14.9068 5.91264 14.9899C5.89926 15.0286 5.88352 15.0665 5.86552 15.1032C5.83068 15.1794 5.792 15.2538 5.74962 15.3261C5.73052 15.3567 5.70887 15.3923 5.68594 15.4255C5.61924 15.5257 5.54288 15.6191 5.45797 15.7044C5.08505 16.0751 4.58026 16.2826 4.05446 16.2813Z" fill="#FF7A72"/>
<path d="M9.46384 16.2815C9.06827 16.2814 8.68157 16.1642 8.35256 15.9446C8.02354 15.725 7.76695 15.4129 7.61517 15.0476C7.46338 14.6823 7.42321 14.2802 7.49972 13.8921C7.57623 13.504 7.76599 13.1473 8.04505 12.8669C8.13252 12.7807 8.22805 12.7031 8.33033 12.6351C8.35963 12.6148 8.39147 12.5957 8.42458 12.5766C8.49516 12.5343 8.56785 12.4956 8.64237 12.4607L8.75826 12.411C8.83738 12.3826 8.9182 12.3592 9.00025 12.3409L9.07921 12.318L9.53261 12.2849C9.5861 12.2849 9.64341 12.2951 9.70327 12.3027H9.73766H9.79752H9.81917H9.83318H9.85228H9.95163C10.7317 12.2913 11.4757 11.9718 12.0211 11.414C12.5665 10.8562 12.8692 10.1052 12.8631 9.32506V9.23209L12.8554 9.2219C12.8547 9.21854 12.8547 9.21507 12.8554 9.21171V9.14549L12.8478 9.08181C12.8478 9.04615 12.8389 9.01176 12.8376 8.9761L12.8682 8.54307C12.8682 8.53161 12.886 8.47812 12.8898 8.46284C12.9055 8.37928 12.9264 8.29676 12.9522 8.21576C12.9667 8.17627 12.9833 8.13758 13.0019 8.09986C13.0361 8.02483 13.0744 7.95171 13.1165 7.8808L13.1254 7.86679C13.1407 7.84005 13.156 7.81458 13.1738 7.7891C13.2422 7.68674 13.3198 7.59082 13.4056 7.50254C13.7815 7.12698 14.2911 6.91602 14.8225 6.91602C15.3539 6.91602 15.8635 7.12698 16.2394 7.50254C16.6137 7.87909 16.8238 8.38847 16.8238 8.91942C16.8238 9.45037 16.6137 9.95975 16.2394 10.3363C16.1514 10.4207 16.0564 10.4973 15.9554 10.5656L15.8891 10.6076L15.8548 10.6292C15.7863 10.6695 15.7157 10.7061 15.6433 10.7388C15.6026 10.7579 15.5656 10.7744 15.5262 10.7897C15.4459 10.8188 15.3638 10.8426 15.2804 10.861L15.2294 10.8763L15.1989 10.8839L14.7531 10.9158C14.6881 10.9158 14.6181 10.9031 14.5493 10.8941H14.4907H14.4805H14.4423H14.343C13.5609 10.9029 12.8142 11.2216 12.2669 11.7804C11.7196 12.3391 11.4164 13.0923 11.4239 13.8744V13.8973V13.9189C11.4252 13.9418 11.4252 13.9648 11.4239 13.9877C11.4239 14.0106 11.4239 14.0348 11.4303 14.0565C11.4366 14.0781 11.4303 14.0998 11.4303 14.124C11.4352 14.1577 11.4382 14.1918 11.4392 14.2259L11.4239 14.6653L11.4048 14.734C11.3855 14.8204 11.3609 14.9055 11.3309 14.9888C11.3182 15.0244 11.3016 15.0601 11.2864 15.0957L11.28 15.1085C11.2467 15.181 11.2092 15.2516 11.1679 15.3199C11.1475 15.3543 11.1284 15.3874 11.1068 15.4192C10.9254 15.6874 10.6804 15.9065 10.3937 16.0569C10.107 16.2074 9.78758 16.2845 9.46384 16.2815Z" fill="#AB0A00"/>
<path d="M4.05599 10.8773C3.6598 10.8777 3.2724 10.7606 2.94277 10.5408C2.61313 10.321 2.35607 10.0084 2.20407 9.64252C2.05208 9.27664 2.01198 8.87391 2.08885 8.48525C2.16572 8.09659 2.3561 7.73945 2.63593 7.45898C2.72341 7.37368 2.81847 7.29652 2.91994 7.22846L3.01801 7.16605C3.08678 7.12529 3.15811 7.08836 3.23325 7.0527C3.27146 7.03614 3.30966 7.01831 3.35169 7.00303C3.42989 6.97446 3.50987 6.95106 3.59113 6.93298L3.64207 6.91897C3.65081 6.91584 3.65975 6.91329 3.66882 6.91133L4.12222 6.87822C4.18081 6.87822 4.24958 6.88968 4.31199 6.89859H4.326H4.38586H4.40496H4.42406H4.54633C4.93436 6.89499 5.31781 6.81432 5.67441 6.66128C6.031 6.50823 6.35364 6.28586 6.62357 6.00707C6.89497 5.73043 7.10844 5.40241 7.25146 5.04222C7.39449 4.68203 7.46419 4.29692 7.4565 3.90946V3.88781V3.86615C7.45201 3.84177 7.44945 3.81707 7.44886 3.79229V3.73115L7.4323 3.67257C7.4323 3.63691 7.42339 3.5987 7.42212 3.56176L7.45268 3.14148V3.13129V3.12365C7.45268 3.11346 7.47179 3.05742 7.47179 3.05742C7.49115 2.97107 7.51582 2.88601 7.54565 2.8027C7.55966 2.76449 7.57749 2.72628 7.59532 2.68808C7.62876 2.61266 7.66705 2.53948 7.70995 2.46902V2.45755C7.72778 2.42826 7.74434 2.39897 7.76471 2.37095C7.83162 2.27012 7.90795 2.17587 7.99269 2.08948C8.36897 1.71252 8.8796 1.50048 9.41222 1.5C9.94485 1.49952 10.4559 1.71065 10.8328 2.08694C11.2098 2.46322 11.4218 2.97384 11.4223 3.50647C11.4228 4.0391 11.2116 4.5501 10.8354 4.92706C10.7484 5.01163 10.6537 5.08795 10.5526 5.15504C10.5221 5.17669 10.4953 5.19197 10.4686 5.20853L10.4533 5.21744C10.3794 5.26074 10.3081 5.29895 10.2393 5.33079C10.1986 5.34862 10.1616 5.36645 10.1234 5.38046C10.043 5.40965 9.96095 5.43389 9.87761 5.45306C9.85997 5.4568 9.84254 5.46148 9.8254 5.46707L9.79356 5.47598L9.34907 5.50655C9.29303 5.50655 9.23317 5.49636 9.17077 5.48872H9.14275H9.08544H9.0485H9.02812H8.92878C8.14846 5.50013 7.40433 5.81979 6.85886 6.37791C6.31338 6.93603 6.01086 7.68728 6.01734 8.46767V8.48932V8.51224C6.02078 8.5346 6.02291 8.55714 6.0237 8.57974C6.0237 8.60394 6.0237 8.62687 6.03007 8.64979C6.03644 8.67272 6.03007 8.69309 6.03771 8.71602C6.04216 8.74896 6.04471 8.78213 6.04535 8.81536L6.01351 9.2522C6.01114 9.26381 6.00817 9.27529 6.0046 9.28659L5.99314 9.32607C5.97492 9.41257 5.95066 9.49769 5.92054 9.58079C5.90653 9.619 5.88743 9.65848 5.8696 9.69796C5.83723 9.77152 5.80109 9.84336 5.76134 9.9132C5.74096 9.94886 5.72186 9.9807 5.70021 10.0113C5.63273 10.1132 5.55552 10.2083 5.46969 10.2953C5.28435 10.4814 5.06401 10.6289 4.82139 10.7295C4.57876 10.83 4.31863 10.8816 4.05599 10.8811V10.8773Z" fill="#AB0A00"/>
</svg>
