<svg width="30" height="30" viewBox="0 0 30 30" fill="none" xmlns="http://www.w3.org/2000/svg">
<path d="M28.0723 13.4598H18.616L25.3024 6.75588C25.5695 6.4688 25.7148 6.08931 25.7077 5.69726C25.7006 5.30522 25.5417 4.93121 25.2645 4.65394C24.9872 4.37668 24.6132 4.2178 24.2212 4.21073C23.8291 4.20366 23.4496 4.34897 23.1625 4.61605L16.4718 11.3025V1.8461C16.4718 1.44454 16.3122 1.05943 16.0283 0.775491C15.7444 0.491549 15.3592 0.332031 14.9577 0.332031C14.5561 0.332031 14.171 0.491549 13.8871 0.775491C13.6031 1.05943 13.4436 1.44454 13.4436 1.8461V11.3025L6.75722 4.61605C6.47015 4.34897 6.09065 4.20366 5.69861 4.21073C5.30656 4.2178 4.93255 4.37668 4.65529 4.65394C4.37803 4.93121 4.21914 5.30522 4.21207 5.69726C4.20501 6.08931 4.35031 6.4688 4.6174 6.75588L11.3038 13.4598H1.84744C1.44589 13.4598 1.06078 13.6193 0.776834 13.9032C0.492891 14.1872 0.333374 14.5723 0.333374 14.9739C0.333374 15.3754 0.492891 15.7605 0.776834 16.0445C1.06078 16.3284 1.44589 16.4879 1.84744 16.4879H11.3038L4.6174 23.1612C4.35031 23.4483 4.20501 23.8278 4.21207 24.2198C4.21914 24.6119 4.37803 24.9859 4.65529 25.2631C4.93255 25.5404 5.30656 25.6993 5.69861 25.7063C6.09065 25.7134 6.47015 25.5681 6.75722 25.301L13.4611 18.6146V28.071C13.4611 28.2698 13.5003 28.4667 13.5764 28.6504C13.6525 28.8341 13.764 29.001 13.9046 29.1416C14.0452 29.2822 14.2121 29.3937 14.3958 29.4698C14.5795 29.5459 14.7764 29.585 14.9752 29.585C15.174 29.585 15.3709 29.5459 15.5546 29.4698C15.7383 29.3937 15.9052 29.2822 16.0458 29.1416C16.1864 29.001 16.2979 28.8341 16.374 28.6504C16.4501 28.4667 16.4893 28.2698 16.4893 28.071V18.6146L23.1625 25.301C23.4496 25.5681 23.8291 25.7134 24.2212 25.7063C24.6132 25.6993 24.9872 25.5404 25.2645 25.2631C25.5417 24.9859 25.7006 24.6119 25.7077 24.2198C25.7148 23.8278 25.5695 23.4483 25.3024 23.1612L18.616 16.4704H28.0723C28.4739 16.4704 28.859 16.3109 29.1429 16.027C29.4269 15.743 29.5864 15.3579 29.5864 14.9563C29.5864 14.5548 29.4269 14.1697 29.1429 13.8857C28.859 13.6018 28.4739 13.4423 28.0723 13.4423V13.4598ZM14.9446 17.1268C14.5188 17.1268 14.1025 17.0005 13.7484 16.764C13.3944 16.5274 13.1184 16.1912 12.9555 15.7978C12.7925 15.4044 12.7499 14.9715 12.833 14.5538C12.9161 14.1362 13.1211 13.7526 13.4222 13.4515C13.7233 13.1504 14.1069 12.9453 14.5245 12.8623C14.9422 12.7792 15.3751 12.8218 15.7685 12.9848C16.1619 13.1477 16.4981 13.4237 16.7347 13.7777C16.9712 14.1318 17.0975 14.548 17.0975 14.9739C17.0941 15.5399 16.8674 16.0817 16.4667 16.4816C16.066 16.8814 15.5237 17.107 14.9577 17.1093L14.9446 17.1268Z" fill="#820BF4"/>
</svg>
