<svg width="16" height="16" viewBox="0 0 16 16" fill="none" xmlns="http://www.w3.org/2000/svg">
<path d="M7.99998 12.6875C9.697 12.6875 11.0727 11.3533 11.0727 9.70738C11.0727 8.06149 9.697 6.72723 7.99998 6.72723C6.30295 6.72723 4.92725 8.06149 4.92725 9.70738C4.92725 11.3533 6.30295 12.6875 7.99998 12.6875Z" fill="url(#paint0_linear_21218_10006)"/>
<path fill-rule="evenodd" clip-rule="evenodd" d="M1.52035 6.25981L3.17016 8.15502C3.23115 8.22457 3.31832 8.26751 3.4122 8.27424C3.50607 8.28098 3.59882 8.25094 3.66968 8.19084C6.34139 5.86746 9.64981 5.86746 12.3286 8.19084C12.3994 8.25094 12.4922 8.28098 12.586 8.27424C12.6799 8.26751 12.7671 8.22457 12.8281 8.15502L14.4796 6.25981C14.6043 6.11641 14.5863 5.90229 14.4392 5.78046C10.5609 2.48985 5.43734 2.48985 1.56081 5.78046C1.41375 5.90229 1.39568 6.11641 1.52035 6.25981Z" fill="#2684FF"/>
<defs>
<linearGradient id="paint0_linear_21218_10006" x1="7.99998" y1="11.6623" x2="7.99998" y2="6.38265" gradientUnits="userSpaceOnUse">
<stop stop-color="#2684FF"/>
<stop offset="0.82" stop-color="#0052CC"/>
</linearGradient>
</defs>
</svg>
